<svg xmlns="http://www.w3.org/2000/svg" width="950" height="580.847" viewBox="0 0 950 580.847">
  <g id="Blogging-cuate" transform="translate(-38.31 -40.69)">
    <g id="freepik--background-complete--inject-8" transform="translate(58.202 40.69)">
      <path id="Path_406" data-name="Path 406" d="M277.806,176.683H99.14V54.45H277.806Zm-177.255-1.411H276.395V55.861H100.551Z" transform="translate(-33.213 -35.037)" fill="#ebebeb"/>
      <path id="Path_407" data-name="Path 407" d="M111.12,61.035a3.555,3.555,0,1,1-3.555-3.555A3.555,3.555,0,0,1,111.12,61.035Z" transform="translate(-31.212 -33.792)" fill="#a6a6a6"/>
      <path id="Path_408" data-name="Path 408" d="M121.41,61.035a3.555,3.555,0,1,1-3.555-3.555A3.555,3.555,0,0,1,121.41,61.035Z" transform="translate(-26.985 -33.792)" fill="#ebebeb"/>
      <path id="Path_409" data-name="Path 409" d="M131.7,61.035a3.555,3.555,0,1,1-3.555-3.555A3.555,3.555,0,0,1,131.7,61.035Z" transform="translate(-22.757 -33.792)" fill="#ff725e"/>
      <rect id="Rectangle_35" data-name="Rectangle 35" width="177.255" height="1.411" transform="translate(66.633 33.549)" fill="#ebebeb"/>
      <path id="Path_410" data-name="Path 410" d="M693.454,299.035l-18.51.4-9.4.155c-3.146.071-6.306,0-9.452.085h-.621v-.635l-.085-15.829V282.5h.705l18.679.085c6.236,0,12.458.155,18.679.226h.4v.4c0,2.681-.113,5.347-.183,7.985Zm0,0-.2-7.971c-.07-2.624-.155-5.22-.183-7.816l.381.4c-6.222.071-12.443.226-18.679.226l-18.679.085.705-.705v15.787l-.635-.621c3.076,0,6.151,0,9.241.071l9.184.24Z" transform="translate(195.303 58.649)" fill="#ebebeb"/>
      <path id="Path_411" data-name="Path 411" d="M678.659,313.132l-18.51.4-9.41.155c-3.132,0-6.292,0-9.438.085h-.621V296.64h.705l18.679.1c6.222,0,12.457.155,18.679.226h.4v.381c0,2.681-.113,5.347-.183,7.985Zm0,0-.2-7.971c-.071-2.624-.155-5.22-.183-7.816l.381.395c-6.222.071-12.457.226-18.679.226l-18.679.085.705-.705v15.787l-.635-.621c3.076,0,6.151,0,9.241.071l9.269.169Z" transform="translate(189.26 64.458)" fill="#ebebeb"/>
      <path id="Path_412" data-name="Path 412" d="M708.224,313.132l-18.51.4-9.4.155c-3.146,0-6.306,0-9.452.085h-.621v-.635l-.085-15.787v-.705h.705l18.679.1c6.236,0,12.458.155,18.679.226h.4v.381c0,2.681-.127,5.347-.183,7.985Zm0,0-.2-7.971c0-2.624-.155-5.22-.183-7.816l.381.395c-6.222.071-12.443.226-18.679.226l-18.679.085.705-.705v15.787l-.635-.621c3.09,0,6.151,0,9.241.071l9.283.169Z" transform="translate(201.371 64.458)" fill="#ebebeb"/>
      <path id="Path_413" data-name="Path 413" d="M335.874,165.9l-18.51.4-9.4.155H297.895v-.635l-.085-15.787v-.705h.705l18.679.085c6.236,0,12.457.155,18.679.226h.4v.381c0,2.681-.127,5.333-.2,7.971Zm0,0-.2-7.985c0-2.624-.155-5.22-.183-7.8l.381.381c-6.222,0-12.443.226-18.679.226l-18.679.1.705-.705L299.15,165.9l-.635-.635c3.076,0,6.151,0,9.241.085l9.283.155Z" transform="translate(48.404 3.937)" fill="#ebebeb"/>
      <path id="Path_414" data-name="Path 414" d="M321.092,179.978l-18.51.4-9.41.155c-3.132,0-6.292,0-9.438.071h-.621v-.635L283,164.205V163.5h.705l18.679.085c6.222,0,12.457.155,18.679.226h.395v.4c0,2.681-.113,5.333-.183,7.971Zm0,0-.2-7.985c-.071-2.624-.155-5.22-.183-7.8l.381.381c-6.222.071-12.457.226-18.679.226l-18.679.1.705-.705-.028,15.787-.635-.635c3.076,0,6.151,0,9.241.085l9.269.155Z" transform="translate(42.32 9.762)" fill="#ebebeb"/>
      <path id="Path_415" data-name="Path 415" d="M350.644,179.978l-18.51.4-9.4.155c-3.146,0-6.292,0-9.452.071h-.621v-.635l-.085-15.759V163.5h.705l18.679.085c6.236,0,12.457.155,18.679.226h.4v.4c0,2.681-.127,5.333-.183,7.971Zm0,0-.2-7.985c0-2.624-.155-5.22-.183-7.8l.381.381c-6.222.071-12.443.226-18.679.226l-18.679.1.705-.705-.071,15.787-.635-.635c3.09,0,6.151,0,9.241.085l9.283.155Z" transform="translate(54.472 9.762)" fill="#ebebeb"/>
      <path id="Path_416" data-name="Path 416" d="M93.459,335.7l-18.51.381-9.41.169c-3.132,0-6.292,0-9.438.07H55.48V319.19h.705l18.679.085c6.222,0,12.457.155,18.679.226h.4v.381c0,2.666-.113,5.333-.183,7.971Zm0,0-.2-7.985c-.071-2.624-.155-5.22-.183-7.8l.381.381c-6.222,0-12.458.226-18.679.226l-18.679.1.705-.705L56.722,335.7l-.621-.635c3.076,0,6.151,0,9.227.071l9.283.169Z" transform="translate(-51.149 73.722)" fill="#ebebeb"/>
      <path id="Path_417" data-name="Path 417" d="M558.944,165.867l-18.51.4-9.4.155c-3.146.071-6.306,0-9.453.071h-.621v-.635l-.085-15.787v-.705h.705l18.679.085c6.236,0,12.458.169,18.679.24h.4v.381c0,2.681-.113,5.347-.183,7.971Zm0,0-.2-7.971c-.071-2.638-.155-5.234-.183-7.816l.381.381c-6.222.071-12.443.226-18.679.24l-18.679.085.705-.705v15.787l-.635-.635c3.076,0,6.151,0,9.241.085l9.283.155Z" transform="translate(140.044 3.953)" fill="#ebebeb"/>
      <path id="Path_418" data-name="Path 418" d="M691.9,57.182l-18.51.4-9.41.155c-3.132,0-6.292,0-9.438.085h-.621V40.69h.705l18.679.085c6.222,0,12.458.169,18.679.24h.4V41.4c0,2.681-.113,5.347-.183,7.971Zm0,0-.2-7.971c-.071-2.638-.155-5.234-.183-7.816l.381.381c-6.222,0-12.457.226-18.679.24l-18.679.085.705-.705-.071,15.787-.635-.635c3.076,0,6.151,0,9.241.085l9.269.155Z" transform="translate(194.699 -40.69)" fill="#ebebeb"/>
      <path id="Path_419" data-name="Path 419" d="M706.694,71.3l-18.51.4-9.4.155c-3.146.071-6.306,0-9.452.071h-.621v-.635L668.63,55.5V54.79h.705l18.679.085c6.236,0,12.457.169,18.679.24h.4V55.5c0,2.681-.127,5.347-.2,7.971Zm0,0-.2-7.971c0-2.638-.155-5.234-.183-7.816l.381.381c-6.222,0-12.443.226-18.679.24l-18.679.085.705-.705V71.3l-.635-.635c3.076,0,6.151,0,9.241.085l9.283.155Z" transform="translate(200.742 -34.898)" fill="#ebebeb"/>
      <path id="Path_420" data-name="Path 420" d="M90.4,57.192l-18.524.4-9.4.155c-3.132,0-6.292,0-9.438.085H52.41V40.7h.72l18.679.1c6.222,0,12.443.155,18.679.226h.381v.381c0,2.681-.127,5.347-.183,7.985Zm0,0-.212-7.971c0-2.638-.155-5.234-.183-7.816l.4.381c-6.236.085-12.457.226-18.679.24l-18.679.085.705-.705-.085,15.787-.621-.55h9.227l9.283.155Z" transform="translate(-52.41 -40.686)" fill="#ebebeb"/>
      <path id="Path_421" data-name="Path 421" d="M193.074,323.063,94.769,348.782l-33-126.2L134.751,203.5l25.31-6.617,6.292,24.04Z" transform="translate(-48.565 23.475)" fill="#ebebeb"/>
      <rect id="Rectangle_36" data-name="Rectangle 36" width="82.772" height="3.344" transform="translate(109.289 247.001) rotate(165.35)" fill="#dbdbdb"/>
      <rect id="Rectangle_37" data-name="Rectangle 37" width="82.772" height="3.344" transform="translate(111.423 255.174) rotate(165.35)" fill="#dbdbdb"/>
      <rect id="Rectangle_38" data-name="Rectangle 38" width="82.772" height="3.344" transform="translate(113.56 263.375) rotate(165.35)" fill="#dbdbdb"/>
      <rect id="Rectangle_39" data-name="Rectangle 39" width="82.772" height="3.344" transform="translate(115.694 271.544) rotate(165.35)" fill="#dbdbdb"/>
      <rect id="Rectangle_40" data-name="Rectangle 40" width="82.772" height="3.344" transform="translate(117.827 279.717) rotate(165.35)" fill="#dbdbdb"/>
      <rect id="Rectangle_41" data-name="Rectangle 41" width="82.913" height="3.349" transform="translate(120.72 286.689) rotate(165.548)" fill="#dbdbdb"/>
      <rect id="Rectangle_42" data-name="Rectangle 42" width="82.772" height="3.344" transform="translate(122.112 296.086) rotate(165.35)" fill="#dbdbdb"/>
      <rect id="Rectangle_43" data-name="Rectangle 43" width="82.913" height="3.349" transform="translate(125.028 302.995) rotate(165.548)" fill="#dbdbdb"/>
      <rect id="Rectangle_44" data-name="Rectangle 44" width="82.913" height="3.349" transform="translate(127.194 311.137) rotate(165.548)" fill="#dbdbdb"/>
      <rect id="Rectangle_45" data-name="Rectangle 45" width="82.772" height="3.344" transform="translate(128.531 320.629) rotate(165.35)" fill="#dbdbdb"/>
      <rect id="Rectangle_46" data-name="Rectangle 46" width="82.913" height="3.349" transform="translate(131.516 327.454) rotate(165.548)" fill="#dbdbdb"/>
      <rect id="Rectangle_47" data-name="Rectangle 47" width="82.913" height="3.349" transform="translate(133.668 335.6) rotate(165.548)" fill="#dbdbdb"/>
      <path id="Path_422" data-name="Path 422" d="M205,349.625,103.55,355.3,96.27,225.064l75.323-4.2L199.1,244.209Z" transform="translate(-34.392 33.326)" fill="#ebebeb"/>
      <path id="Path_423" data-name="Path 423" d="M149.66,220.86l27.511,23.349-26.128,1.467Z" transform="translate(-12.458 33.326)" fill="#dbdbdb"/>
      <rect id="Rectangle_48" data-name="Rectangle 48" width="56.489" height="3.344" transform="matrix(-0.998, 0.056, -0.056, -0.998, 129.608, 279.872)" fill="#dbdbdb"/>
      <rect id="Rectangle_49" data-name="Rectangle 49" width="56.489" height="3.344" transform="matrix(-0.998, 0.056, -0.056, -0.998, 130.069, 288.321)" fill="#dbdbdb"/>
      <rect id="Rectangle_50" data-name="Rectangle 50" width="56.489" height="3.344" transform="matrix(-0.998, 0.056, -0.056, -0.998, 130.543, 296.754)" fill="#dbdbdb"/>
      <rect id="Rectangle_51" data-name="Rectangle 51" width="82.772" height="3.344" transform="matrix(-0.998, 0.056, -0.056, -0.998, 157.258, 303.733)" fill="#dbdbdb"/>
      <rect id="Rectangle_52" data-name="Rectangle 52" width="82.772" height="3.344" transform="matrix(-0.998, 0.056, -0.056, -0.998, 157.733, 312.167)" fill="#dbdbdb"/>
      <rect id="Rectangle_53" data-name="Rectangle 53" width="82.772" height="3.344" transform="matrix(-0.998, 0.056, -0.056, -0.998, 158.208, 320.614)" fill="#dbdbdb"/>
      <rect id="Rectangle_54" data-name="Rectangle 54" width="82.772" height="3.344" transform="matrix(-0.998, 0.056, -0.056, -0.998, 158.668, 329.049)" fill="#dbdbdb"/>
      <rect id="Rectangle_55" data-name="Rectangle 55" width="82.772" height="3.344" transform="matrix(-0.998, 0.056, -0.056, -0.998, 159.143, 337.496)" fill="#dbdbdb"/>
      <rect id="Rectangle_56" data-name="Rectangle 56" width="82.772" height="3.344" transform="matrix(-0.998, 0.056, -0.056, -0.998, 159.618, 345.931)" fill="#dbdbdb"/>
      <rect id="Rectangle_57" data-name="Rectangle 57" width="82.772" height="3.344" transform="matrix(-0.998, 0.056, -0.056, -0.998, 160.092, 354.364)" fill="#dbdbdb"/>
      <rect id="Rectangle_58" data-name="Rectangle 58" width="82.772" height="3.344" transform="matrix(-0.998, 0.056, -0.056, -0.998, 160.553, 362.813)" fill="#dbdbdb"/>
      <rect id="Rectangle_59" data-name="Rectangle 59" width="82.772" height="3.344" transform="matrix(-0.998, 0.056, -0.056, -0.998, 161.043, 371.26)" fill="#dbdbdb"/>
      <path id="Path_424" data-name="Path 424" d="M579.43,143.577,676.748,215.2l47.841-65.137L627.271,78.44Z" transform="translate(164.097 -25.182)" fill="#ebebeb"/>
      <path id="Path_425" data-name="Path 425" d="M584.4,140.445l89.248,65.688,41.873-57.039L626.273,83.42Z" transform="translate(166.139 -23.136)" fill="#fff"/>
      <path id="Path_426" data-name="Path 426" d="M611.252,101.668A12.048,12.048,0,1,0,628.1,99.1,12.048,12.048,0,0,0,611.252,101.668Z" transform="translate(176.208 -17.654)" fill="#dbdbdb"/>
      <path id="Path_427" data-name="Path 427" d="M604,143.9l61.469,45.259L665.4,124.87Z" transform="translate(174.191 -6.108)" fill="#dbdbdb"/>
      <path id="Path_428" data-name="Path 428" d="M586.91,128.275l50.747,37.344-5.4-45.809Z" transform="translate(167.17 -8.186)" fill="#ebebeb"/>
      <path id="Path_429" data-name="Path 429" d="M554.42,126.3l120.822,1.622,1-80.811L555.408,45.49Z" transform="translate(153.823 -38.718)" fill="#ebebeb"/>
      <path id="Path_430" data-name="Path 430" d="M558.02,119.848l110.805,1.5.861-70.752L558.881,49.11Z" transform="translate(155.302 -37.231)" fill="#fff"/>
      <path id="Path_431" data-name="Path 431" d="M565.56,68.308A12.062,12.062,0,1,0,577.778,56.4,12.062,12.062,0,0,0,565.56,68.308Z" transform="translate(158.399 -34.236)" fill="#dbdbdb"/>
      <path id="Path_432" data-name="Path 432" d="M582.4,114.573l76.325,1.03L621.268,63.36Z" transform="translate(165.318 -31.377)" fill="#dbdbdb"/>
      <path id="Path_433" data-name="Path 433" d="M561.2,109.073l63.007.846-31.052-34.1Z" transform="translate(156.608 -26.258)" fill="#ebebeb"/>
    </g>
    <g id="freepik--Plant--inject-8" transform="translate(858.149 319.955)">
      <path id="Path_434" data-name="Path 434" d="M696.45,271.91C678.405,296.36,659.585,324.731,655,355.4c0,.466.691.621.79.155a183.835,183.835,0,0,1,7.985-24.534c11.865-3.273,23.518-5.954,29.74-17.734,6.363-12.1,5.559-27.892,4.345-41.083C697.776,271.473,696.817,271.445,696.45,271.91Z" transform="translate(-604.804 -225.094)" fill="#ff725e"/>
      <path id="Path_435" data-name="Path 435" d="M661.36,328.516c8.1-18.185,18.51-36.455,31.743-51.424.085-.1.226,0,.141.141-8.662,10.666-15.237,22.263-21.67,34.071,5.982-6.066,12.528-11.5,18.185-17.931.113-.127.3,0,.183.183-5.643,6.744-11.752,14.108-19.074,19.06-1.975,3.626-3.95,7.266-5.954,10.891.48-.268.988-.508,1.5-.762.1,0,.169.085.085.127-.564.282-1.115.578-1.693.832-.945,1.721-1.891,3.442-2.822,5.149A.356.356,0,0,1,661.36,328.516Z" transform="translate(-602.205 -222.854)" fill="#263238"/>
      <path id="Path_436" data-name="Path 436" d="M665.65,311.7a104.7,104.7,0,0,0,13.854-9.241c.127-.1.3,0,.169.169a73.838,73.838,0,0,1-13.826,9.424.2.2,0,0,1-.2-.353Z" transform="translate(-600.472 -212.432)" fill="#263238"/>
      <path id="Path_437" data-name="Path 437" d="M653.9,364.359a.339.339,0,0,0,.663,0c.085-10.087,0-20.231.155-30.375,2.582-5.22,8.14-8.112,11.992-12.288a53.611,53.611,0,0,0,7.209-10.031,72.179,72.179,0,0,0,8.352-27.85c1.058-10.793-3.033-46.43-7.59-45.146-2.356.635-10,18.341-12.02,24.125a167.546,167.546,0,0,0-7.181,29.627C651.757,316.067,652.1,340.46,653.9,364.359Z" transform="translate(-605.794 -238.636)" fill="#ff725e"/>
      <path id="Path_438" data-name="Path 438" d="M653.5,319.019h0c.55-12.782,3.428-25.677,6.123-38.092,2.906-13.346,6.292-25.917,13.163-37.824a.2.2,0,0,1,.339.2,140.422,140.422,0,0,0-10.567,29.035c.452-.72,1.016-1.411,1.5-2.088.183-.268.635,0,.437.268a18.137,18.137,0,0,1-2.145,3.033h-.085c-2.37,9.537-4.063,19.286-5.516,29.02.113-.113.212-.254.324-.367s.2,0,.155.113c-.183.324-.4.635-.578.959-.734,4.938-1.411,9.876-2.1,14.757,8.8-7.52,16.309-16.38,20.556-27.3h.071c-4.148,11.287-10.694,21.388-20.767,28.216l-.55,3.95c0,.268-.48.2-.466,0,0-1.171,0-2.342.1-3.5a.268.268,0,0,1,.014-.381Z" transform="translate(-605.466 -236.833)" fill="#263238"/>
      <path id="Path_439" data-name="Path 439" d="M656.409,292.774c6.73-10.031,13.008-19.751,17.931-30.869,0-.127.268,0,.212.085-4.148,11.018-9.876,22.192-17.8,31.038C656.592,293.212,656.282,292.972,656.409,292.774Z" transform="translate(-604.238 -229.099)" fill="#263238"/>
      <path id="Path_440" data-name="Path 440" d="M662.752,264.44c2.822-4.924,5.643-9.721,8.338-14.743.071-.141.268,0,.212.113a76.518,76.518,0,0,1-8.183,14.884C662.992,264.948,662.583,264.722,662.752,264.44Z" transform="translate(-601.636 -234.116)" fill="#263238"/>
      <path id="Path_441" data-name="Path 441" d="M662,261.65v0Z" transform="translate(-601.929 -229.182)" fill="#263238"/>
      <path id="Path_442" data-name="Path 442" d="M656.869,330.74a103.551,103.551,0,0,1-2.37,19.893c.113.72.212,1.411.325,2.173a95.356,95.356,0,0,0,3.555-22.15.705.705,0,0,0,0-.691h0a147.2,147.2,0,0,0-2.229-30.05c-3.061-18.637-9.932-36.385-22.813-50.281a.917.917,0,0,0-1.411.3c-5.22,13.276-3.4,29.105,1.044,42.324A76.946,76.946,0,0,0,643.213,312.4C647.6,318.649,653.257,323.926,656.869,330.74Z" transform="translate(-615.59 -234.207)" fill="#ff725e"/>
      <path id="Path_443" data-name="Path 443" d="M633.13,254.02c12.274,19.907,20.8,43.5,21.839,67.014,0,.409-.677.522-.734.1-.3-2.116-.621-4.232-.959-6.292h0c-5.079-4.853-10.285-9.974-13.911-16.055a.113.113,0,0,1,.169-.127,170.95,170.95,0,0,0,13.558,14.616q-1.312-7.788-3.146-15.35c-.339-.381-.649-.762-.973-1.143s.141-.607.367-.367l.3.324a180.03,180.03,0,0,0-6.419-20.344c-3.118-3.725-6.6-6.941-8.888-11.428a.1.1,0,0,1,.169-.1,91.987,91.987,0,0,0,5.643,7.52c.818.959,1.735,1.834,2.582,2.822a155.04,155.04,0,0,0-10.031-20.922.268.268,0,0,1,.437-.268Z" transform="translate(-613.972 -232.344)" fill="#263238"/>
      <path id="Path_444" data-name="Path 444" d="M634.885,271.389c3.964,5.333,8.465,10.426,12.161,15.942.113.155-.113.325-.254.2-4.726-4.444-8.733-10.511-12.175-15.984C634.518,271.375,634.772,271.234,634.885,271.389Z" transform="translate(-613.187 -225.208)" fill="#263238"/>
      <path id="Path_445" data-name="Path 445" d="M643.884,283.551l.169.169c.113.127-.071.31-.183.183l-.169-.169a.13.13,0,0,1,.183-.183Z" transform="translate(-609.462 -220.2)" fill="#263238"/>
      <path id="Path_446" data-name="Path 446" d="M619.434,281.437c.973,10.243,6.363,22.474,12.937,30.361a32.136,32.136,0,0,0,10.5,8.183c4.543,2.257,9.3,4.839,14,6.687a92.378,92.378,0,0,1,4.966,17.607c.155-.508.3-1.044.451-1.552-3.019-25.931-19.751-48.081-41.252-62.3a1.03,1.03,0,0,0-1.594,1.016Z" transform="translate(-619.421 -221.543)" fill="#ff725e"/>
      <path id="Path_447" data-name="Path 447" d="M624.7,286.612a.181.181,0,0,1,.226-.282,87.767,87.767,0,0,1,27.342,33.69c.155.353-.339.663-.536.31-1-1.749-2.018-3.442-3.047-5.107h0c-4.9-.931-9.537-4.374-13.177-7.647-.1-.085,0-.226.141-.141a30.123,30.123,0,0,0,6.208,4.345c1.989,1.016,4.134,1.651,6.222,2.469-1.82-2.822-3.71-5.643-5.643-8.324a57.192,57.192,0,0,1-14.715-8.267c-.141-.113,0-.339.141-.24a148.112,148.112,0,0,0,13.671,7.308,121.063,121.063,0,0,0-9.65-11.286c-1.665-.875-3.358-1.764-4.966-2.709a.13.13,0,0,1,.1-.24,17.933,17.933,0,0,1,3.809,1.862C628.832,290.421,626.843,288.488,624.7,286.612Z" transform="translate(-617.278 -219.056)" fill="#263238"/>
      <path id="Path_448" data-name="Path 448" d="M625.057,292.865a8.836,8.836,0,0,1,.832.593c.085.071,0,.169-.1.141a5.641,5.641,0,0,1-.861-.494C624.775,293.062,624.916,292.78,625.057,292.865Z" transform="translate(-617.185 -216.365)" fill="#263238"/>
      <path id="Path_449" data-name="Path 449" d="M690.663,384.463h-58.8l4.74-53.554,1.044-11.809h47.22l1.044,11.809Z" transform="translate(-614.311 -205.58)" fill="#455a64"/>
      <path id="Path_450" data-name="Path 450" d="M684.528,330.909H635.22l1.044-11.809h47.22Z" transform="translate(-612.93 -205.58)" fill="#263238"/>
      <rect id="Rectangle_60" data-name="Rectangle 60" width="52.849" height="11.682" transform="translate(20.526 105.266)" fill="#455a64"/>
    </g>
    <g id="freepik--Floor--inject-8" transform="translate(38.31 498.132)">
      <path id="Path_451" data-name="Path 451" d="M38.31,365.635l118.762-.353,118.748-.113,237.5-.24,237.5.24,118.748.113,118.748.353-118.748.339-118.748.127-237.5.24-237.5-.24-118.748-.127Z" transform="translate(-38.31 -364.93)" fill="#263238"/>
    </g>
    <g id="freepik--Shadow--inject-8" transform="translate(55.818 548.992)">
      <ellipse id="Ellipse_10" data-name="Ellipse 10" cx="457.499" cy="36.272" rx="457.499" ry="36.272" fill="#ebebeb"/>
    </g>
    <g id="freepik--Device--inject-8" transform="translate(99.793 83.325)">
      <rect id="Rectangle_61" data-name="Rectangle 61" width="656.128" height="438.904" transform="translate(85.467)" fill="#ebebeb"/>
      <rect id="Rectangle_62" data-name="Rectangle 62" width="646.59" height="428.196" transform="translate(90.236 5.361)" fill="#263238"/>
      <rect id="Rectangle_63" data-name="Rectangle 63" width="827.034" height="30.121" transform="translate(0 471.819)" fill="#dbdbdb"/>
      <path id="Path_452" data-name="Path 452" d="M81.89,414.924l85.467-32.914H823.47l85.467,32.914Z" transform="translate(-81.89 56.894)" fill="#ebebeb"/>
      <path id="Path_453" data-name="Path 453" d="M147.88,403.243l55.135-21.233H733.594l55.149,21.233Z" transform="translate(-54.78 56.894)" fill="#263238"/>
      <rect id="Rectangle_64" data-name="Rectangle 64" width="573.51" height="363.13" transform="translate(126.776 37.894)" fill="#fff"/>
      <rect id="Rectangle_65" data-name="Rectangle 65" width="563.818" height="91.632" transform="translate(126.282 51.862)" fill="#ff725e"/>
      <rect id="Rectangle_66" data-name="Rectangle 66" width="573.99" height="13.967" transform="translate(126.282 37.894)" fill="#455a64"/>
      <path id="Path_454" data-name="Path 454" d="M181.291,103.731a3.456,3.456,0,1,1-1.007-2.453,3.47,3.47,0,0,1,1.007,2.453Z" transform="translate(-43.906 -58.853)" fill="#c7c7c7"/>
      <path id="Path_455" data-name="Path 455" d="M191.321,103.731a3.456,3.456,0,1,1-1.007-2.453A3.471,3.471,0,0,1,191.321,103.731Z" transform="translate(-39.786 -58.853)" fill="#fff"/>
      <path id="Path_456" data-name="Path 456" d="M201.351,103.731a3.456,3.456,0,1,1-1.007-2.453,3.471,3.471,0,0,1,1.007,2.453Z" transform="translate(-35.665 -58.853)" fill="#ff725e"/>
      <rect id="Rectangle_67" data-name="Rectangle 67" width="10.186" height="349.148" transform="translate(690.1 51.862)" fill="#dbdbdb"/>
      <path id="Path_457" data-name="Path 457" d="M575.4,228.114h0a2.624,2.624,0,0,1-2.624-2.624V111.764a2.624,2.624,0,0,1,2.624-2.624h0a2.638,2.638,0,0,1,2.638,2.624V225.518a2.638,2.638,0,0,1-2.638,2.6Z" transform="translate(119.775 -55.205)" fill="#a6a6a6"/>
      <rect id="Rectangle_68" data-name="Rectangle 68" width="137.075" height="18.298" transform="translate(523.638 68.904)" fill="#fff"/>
      <path id="Path_458" data-name="Path 458" d="M590.362,138.289H452.92V119.61H590.362Zm-137.075-.381H589.995V119.991H453.287Z" transform="translate(70.535 -50.903)" fill="#c7c7c7"/>
      <rect id="Rectangle_69" data-name="Rectangle 69" width="18.679" height="18.679" transform="translate(642.231 68.707)" fill="#455a64"/>
      <path id="Path_459" data-name="Path 459" d="M549.578,131.565l-1.693,1.284-3.132-4.134-1.143-1.51a2.469,2.469,0,0,0,.649-.367,2.921,2.921,0,0,0,.875-1.129l1.213,1.608Z" transform="translate(107.791 -48.397)" fill="#fff"/>
      <path id="Path_460" data-name="Path 460" d="M547.891,123.528a4.613,4.613,0,1,0-1.5,6.871,3.75,3.75,0,0,0,.635-.409,4.525,4.525,0,0,0,.959-.988,4.613,4.613,0,0,0-.1-5.474Zm-1.989,4.994a2.47,2.47,0,0,1-.649.367,2.754,2.754,0,1,1,1.524-1.5,2.92,2.92,0,0,1-.875,1.086Z" transform="translate(106.148 -50.039)" fill="#fff"/>
      <rect id="Rectangle_70" data-name="Rectangle 70" width="0.988" height="11.103" transform="translate(527.461 72.488)" fill="#c7c7c7"/>
      <rect id="Rectangle_71" data-name="Rectangle 71" width="315.698" height="18.298" transform="translate(201.069 68.904)" fill="#fff"/>
      <path id="Path_461" data-name="Path 461" d="M540.332,138.289H224.31V119.61H540.332Zm-315.7-.381H539.9V119.991H224.634Z" transform="translate(-23.382 -50.903)" fill="#c7c7c7"/>
      <rect id="Rectangle_72" data-name="Rectangle 72" width="0.988" height="11.103" transform="translate(204.893 72.488)" fill="#c7c7c7"/>
      <path id="Path_462" data-name="Path 462" d="M201.869,134.314l-6.659-6.137,6.645-6.377,1.044,1.072-5.516,5.276,5.5,5.065Z" transform="translate(-35.336 -50.004)" fill="#fff"/>
      <path id="Path_463" data-name="Path 463" d="M211.626,121.79l6.659,6.137L211.64,134.3l-1.03-1.072,5.5-5.291-5.5-5.051Z" transform="translate(-29.01 -50.008)" fill="#fff"/>
      <rect id="Rectangle_73" data-name="Rectangle 73" width="145.37" height="111.539" transform="translate(486.336 275.208) rotate(180)" fill="#ff725e"/>
      <path id="Path_464" data-name="Path 464" d="M333.9,207.315a13.205,13.205,0,1,0,10.355-10.369A13.205,13.205,0,0,0,333.9,207.315Z" transform="translate(21.536 -19.239)" fill="#fff" opacity="0.6"/>
      <path id="Path_465" data-name="Path 465" d="M357.56,266.43h97.417l-48.7-60.03Z" transform="translate(31.359 -15.249)" fill="#ff725e"/>
      <path id="Path_466" data-name="Path 466" d="M357.56,266.43h97.417l-48.7-60.03Z" transform="translate(31.359 -15.249)" opacity="0.2"/>
      <path id="Path_467" data-name="Path 467" d="M323.57,260.374h86.384L366.769,221.28Z" transform="translate(17.396 -9.136)" fill="#ff725e"/>
      <path id="Path_468" data-name="Path 468" d="M323.57,260.374h86.384L366.769,221.28Z" transform="translate(17.396 -9.136)" opacity="0.1"/>
      <rect id="Rectangle_74" data-name="Rectangle 74" width="145.37" height="24.026" transform="translate(340.966 251.181)" fill="#ff725e"/>
      <rect id="Rectangle_75" data-name="Rectangle 75" width="145.37" height="24.026" transform="translate(340.966 251.181)" opacity="0.1"/>
      <rect id="Rectangle_76" data-name="Rectangle 76" width="76.875" height="6.462" transform="translate(157.376 290.642)" fill="#a6a6a6"/>
      <rect id="Rectangle_77" data-name="Rectangle 77" width="326.716" height="6.462" transform="translate(157.376 305.653)" fill="#ebebeb"/>
      <rect id="Rectangle_78" data-name="Rectangle 78" width="326.716" height="6.462" transform="translate(157.376 319.874)" fill="#ebebeb"/>
      <rect id="Rectangle_79" data-name="Rectangle 79" width="326.716" height="6.462" transform="translate(157.376 334.109)" fill="#ebebeb"/>
      <rect id="Rectangle_80" data-name="Rectangle 80" width="326.716" height="6.462" transform="translate(157.376 348.344)" fill="#ebebeb"/>
      <rect id="Rectangle_81" data-name="Rectangle 81" width="326.716" height="6.462" transform="translate(157.376 362.565)" fill="#ebebeb"/>
      <rect id="Rectangle_82" data-name="Rectangle 82" width="76.875" height="6.462" transform="translate(506.313 164.656)" fill="#a6a6a6"/>
      <rect id="Rectangle_83" data-name="Rectangle 83" width="163.358" height="6.462" transform="translate(506.313 179.653)" fill="#ebebeb"/>
      <rect id="Rectangle_84" data-name="Rectangle 84" width="163.358" height="6.462" transform="translate(506.313 193.888)" fill="#ebebeb"/>
      <rect id="Rectangle_85" data-name="Rectangle 85" width="163.358" height="6.462" transform="translate(506.313 208.109)" fill="#ebebeb"/>
      <rect id="Rectangle_86" data-name="Rectangle 86" width="163.358" height="6.462" transform="translate(506.313 222.344)" fill="#ebebeb"/>
      <rect id="Rectangle_87" data-name="Rectangle 87" width="163.358" height="6.462" transform="translate(506.313 248.727)" fill="#ebebeb"/>
      <rect id="Rectangle_88" data-name="Rectangle 88" width="163.358" height="6.462" transform="translate(506.313 262.962)" fill="#ebebeb"/>
      <rect id="Rectangle_89" data-name="Rectangle 89" width="163.358" height="6.462" transform="translate(506.313 277.197)" fill="#ebebeb"/>
      <rect id="Rectangle_90" data-name="Rectangle 90" width="163.358" height="6.462" transform="translate(506.313 291.418)" fill="#ebebeb"/>
      <rect id="Rectangle_91" data-name="Rectangle 91" width="163.358" height="6.462" transform="translate(506.313 305.653)" fill="#ebebeb"/>
      <rect id="Rectangle_92" data-name="Rectangle 92" width="163.358" height="6.462" transform="translate(506.313 334.109)" fill="#ebebeb"/>
      <rect id="Rectangle_93" data-name="Rectangle 93" width="110.1" height="6.462" transform="translate(506.313 348.344)" fill="#ebebeb"/>
      <rect id="Rectangle_94" data-name="Rectangle 94" width="0.705" height="14.616" transform="translate(619.7 344.267)" fill="#263238"/>
      <rect id="Rectangle_95" data-name="Rectangle 95" width="76.875" height="17.297" transform="translate(157.376 163.683)" fill="#a6a6a6"/>
      <rect id="Rectangle_96" data-name="Rectangle 96" width="163.104" height="6.462" transform="translate(157.376 192.915)" fill="#ebebeb"/>
      <rect id="Rectangle_97" data-name="Rectangle 97" width="163.104" height="6.462" transform="translate(157.376 207.15)" fill="#ebebeb"/>
      <rect id="Rectangle_98" data-name="Rectangle 98" width="163.104" height="6.462" transform="translate(157.376 221.371)" fill="#ebebeb"/>
      <rect id="Rectangle_99" data-name="Rectangle 99" width="163.104" height="6.462" transform="translate(157.376 235.606)" fill="#ebebeb"/>
      <rect id="Rectangle_100" data-name="Rectangle 100" width="163.104" height="6.462" transform="translate(157.376 254.525)" fill="#ebebeb"/>
      <rect id="Rectangle_101" data-name="Rectangle 101" width="163.104" height="6.462" transform="translate(157.376 268.76)" fill="#ebebeb"/>
    </g>
    <g id="freepik--Pen--inject-8" transform="translate(521.428 561.442)">
      <path id="Path_469" data-name="Path 469" d="M413,451.95s-32.449,2.271-32.251-20.005,32.689-19.286,32.689-19.286Z" transform="translate(-380.749 -408.686)" fill="#ff725e"/>
      <path id="Path_470" data-name="Path 470" d="M660.262,430.26l-.113,9.749-28.47,14.447h0L503.3,453.045l-82.646-.931-9.1-.1h-8.86l.451-39.305h1.3l6.589.071h.959l9.1.1,211.072,2.4h0l28.061,15.1Z" transform="translate(-371.736 -408.61)" fill="#ff725e"/>
      <path id="Path_471" data-name="Path 471" d="M591.581,429.624l-6.377,3.287h-.014l.085-6.631L589.1,428.3Z" transform="translate(-296.762 -403.036)" fill="#455a64"/>
      <rect id="Rectangle_102" data-name="Rectangle 102" width="45.88" height="9.1" transform="matrix(0.011, -1, 1, 0.011, 29.734, 46.571)" fill="#263238"/>
      <rect id="Rectangle_103" data-name="Rectangle 103" width="45.88" height="9.1" transform="translate(39.11 45.88) rotate(-89.427)" fill="#263238"/>
      <path id="Path_472" data-name="Path 472" d="M415.38,447.249l.169-14.8,82.758,9.1L497.927,447Z" transform="translate(-366.523 -400.501)" fill="#263238"/>
    </g>
    <g id="freepik--Character--inject-8" transform="translate(246.019 322.306)">
      <path id="Path_473" data-name="Path 473" d="M279.08,248.693c8,9.706,14.348,64.742,4.232,86.229s-53.611,26.03-62.993-1.622c-4.924-14.39,7.477-30.474,13.248-68.58C237.842,236.32,267.892,235.149,279.08,248.693Z" transform="translate(-171.712 -240.303)" fill="#263238"/>
      <path id="Path_474" data-name="Path 474" d="M258.21,340.346a30.064,30.064,0,0,0,14.362-18.129c2.3-8.267,1.975-17.438,1.566-25.931a158.166,158.166,0,0,0-10.934-49.8s.07-.113.1,0a146.625,146.625,0,0,1,11.653,52.68c.3,8.592.522,18.143-2.822,26.227a30.333,30.333,0,0,1-13.868,15.138C258.21,340.529,258.126,340.346,258.21,340.346Z" transform="translate(-155.696 -237.784)" fill="#263238"/>
      <path id="Path_475" data-name="Path 475" d="M221.744,299.49c2.455-5.22,5.375-10.2,7.054-15.745s2.4-10.934,3.541-16.422c1.735-8.465,4.726-16.93,11.823-22.333h0c-7.237,5.784-9.749,14.842-11.442,23.561-.931,4.769-1.651,9.594-2.991,14.263a71.383,71.383,0,0,1-5.079,12.133c-4.7,9.34-8.366,18.961-6.222,29.627a27.962,27.962,0,0,0,15.745,20.076c.254.113.071.564-.183.466a27.723,27.723,0,0,1-15.35-17.268C215.663,318.366,217.582,308.336,221.744,299.49Z" transform="translate(-172.53 -238.377)" fill="#263238"/>
      <path id="Path_476" data-name="Path 476" d="M224.534,299.664a72.993,72.993,0,0,0,4.881-15.307c.945-5.037,1.411-10.13,2.285-15.18,1.411-8.634,4.12-17.508,10.962-23.546.085,0,.212,0,.127.127-6.447,6.363-9.086,14.926-10.5,23.575-1.524,9.325-2.286,18.524-5.827,27.4-3.442,8.62-8.239,17.282-7.759,26.805s6.814,16.591,14.574,21.416a.169.169,0,0,1-.169.282c-6.857-3.936-12.824-10.186-14.56-17.974C216.422,317.68,220.824,308.312,224.534,299.664Z" transform="translate(-172.202 -238.114)" fill="#263238"/>
      <path id="Path_477" data-name="Path 477" d="M508.82,424.363c-3.344,1.284-100.464,3.061-104.273.889-.409-.254-.3-4.543-1.721-15.632-.071-.522-2.286-2.582-5.756-5.488-12.979-10.877-43.509-33.86-43.509-33.86l48.476-42.113L449,374.336l12.218,11.992s39.686,21.43,43.622,24.266S512.192,423.08,508.82,424.363Z" transform="translate(-116.51 -204.21)" fill="#d3766a"/>
      <path id="Path_478" data-name="Path 478" d="M494.474,404.957c-3.329,1.3-100.478,3.047-104.273.889-.423-.254-.3-4.543-1.721-15.618,11.921,3.174,84.875,5.121,90.447.324,3.725-3.2-10.638-11.837-16.521-15.152,11.6,6.32,25.818,14.179,28.089,15.815C494.39,394.051,497.846,403.673,494.474,404.957Z" transform="translate(-102.164 -184.803)" fill="#ff725e"/>
      <path id="Path_479" data-name="Path 479" d="M510.8,385.1l-59.917,31.038s-62.414-56.433-68.142-56.926-89.686,56.574-131.968,56.814c-43.735.183-46.007-45.7-46.007-45.7l63.882-14.672c46.035-22.686,94-63.487,125.365-59.649C428.088,300.081,510.8,385.1,510.8,385.1Z" transform="translate(-177.635 -217.524)" fill="#455a64"/>
      <path id="Path_480" data-name="Path 480" d="M426.231,353.477c-10.1,5.008-7.266,3.442-17.339,8.55-4.924,2.5-29.627,15-33.86,18.087a.113.113,0,0,0,.1.2c4.952-1.665,29.458-14.686,34.339-17.282,9.96-5.291,7.054-3.88,16.93-9.269a.165.165,0,0,0-.169-.282Z" transform="translate(-107.706 -193.819)" fill="#263238"/>
      <path id="Path_481" data-name="Path 481" d="M429.419,385.042c-11.724-10.327-50.1-43.947-51.65-45.146a21.165,21.165,0,0,0-4.007-2.991,4.232,4.232,0,0,0-3.7.3c-1.763.818-3.513,1.735-5.262,2.6l-10.384,5.065c-13.431,6.546-26.805,13.276-40.307,19.61-13.008,6.095-22.291,11.823-35.877,16.521a204.66,204.66,0,0,1-41.675,9.876c-1.749.212-3.513.4-5.262.564a.1.1,0,0,0,0,.2A167.26,167.26,0,0,0,272.325,384c13.459-4.134,22.573-9.509,35.369-15.392,13.248-6.095,26.312-12.613,39.362-19.1,6.9-3.428,13.784-6.885,20.7-10.271,1.566-.776,3.8-2.441,5.643-1.608a9.058,9.058,0,0,1,2.06,1.524l2.3,1.9c2.977,2.469,50.013,42.987,51.551,44.158C429.377,385.3,429.532,385.127,429.419,385.042Z" transform="translate(-166.777 -200.737)" fill="#263238"/>
      <path id="Path_482" data-name="Path 482" d="M205.039,353.015s-7.167,41.422,13.544,57.7,172.458,14.306,195.482,6.871,23.758-44.6-1.411-53.216c-23.984-8.183-125.788-12.161-128.3-13.163-.635-.254,9.029-6.052,8.987-6.405l-23.18-7.054Z" transform="translate(-178.017 -200.27)" fill="#455a64"/>
      <path id="Path_483" data-name="Path 483" d="M232.456,347.864c0-.183-.3-.127-.3,0a20.5,20.5,0,0,1-4.8,13.163c-3.527,4.077-8.719,6.349-13.431,8.733-.451.226-.113.945.353.8a41.8,41.8,0,0,0,8.324-3.6,19.823,19.823,0,0,0,6.25-5.192,17.875,17.875,0,0,0,3.6-13.911Z" transform="translate(-173.959 -196.163)" fill="#263238"/>
      <path id="Path_484" data-name="Path 484" d="M264.968,348.031c-1.058-1.34-2.2-2.624-3.3-3.922-2.6-3.09-5.192-6.194-7.915-9.17-.254-.282-.762.113-.522.423,1.82,2.4,3.767,4.712,5.643,7.054.973,1.2,1.961,2.384,2.949,3.569a23.46,23.46,0,0,1,2.751,3.5c.705,1.326-.226,2.455-1.608,2.6a4.7,4.7,0,0,1-3.3-1.213,43.741,43.741,0,0,1-5.643-6.01c-1.086-1.227-2.187-2.455-3.287-3.668s-2.441-2.511-3.612-3.809c-.085-.071-.226,0-.155.127,1.03,1.411,1.975,2.822,3.005,4.232s2.074,2.822,3.132,4.232,2.046,2.6,3.118,3.852a13.133,13.133,0,0,0,3.16,2.822c1.975,1.157,5.389,1.411,6.447-1.129a3.612,3.612,0,0,0-.861-3.485Z" transform="translate(-160.308 -201.465)" fill="#263238"/>
      <path id="Path_485" data-name="Path 485" d="M409.122,412.71c-7.929.155-15.843.621-23.772.79s-15.731.212-23.6.127q-23.688-.212-47.347-1.834c-15.928-1.1-33.1-2.695-48.927-4.881-7.562-1.044-15.237-1.919-22.728-3.527a35.905,35.905,0,0,1-17.917-9.156c-10.243-9.946-14.235-24.548-15.872-38.515q-.324-2.822-.55-5.643a.1.1,0,1,0-.183,0c.917,14.306,3.146,29.232,12.147,40.744a35.708,35.708,0,0,0,14.658,11.413c7.054,2.822,14.955,3.5,22.432,4.515,15.886,2.159,33.126,3.823,49.11,5.065s32.195,2.017,48.306,2.257,32.265,0,48.363-.79q2.934-.127,5.883-.381a.1.1,0,0,0,0-.183Z" transform="translate(-176.22 -195.264)" fill="#263238"/>
      <path id="Path_486" data-name="Path 486" d="M337.8,352.935c-4.98-.734-9.96-1.411-14.983-1.961s-10.144-.988-15.223-1.411c-10.031-.861-20.1-1.622-30.163-2.088-5.728-.268-11.442-.3-17.156-.226-.183,0-.169.268,0,.282,10.059.9,20.132,1.538,30.22,2.215s20.1,1.552,30.135,2.511c5.643.536,11.4.959,17.1,1.411C338.141,353.711,338.226,353.006,337.8,352.935Z" transform="translate(-154.886 -196.381)" fill="#263238"/>
      <path id="Path_487" data-name="Path 487" d="M274.6,342.4a78.418,78.418,0,0,0-11.555,6.193,91.9,91.9,0,0,0-10.694,7.477c-.085.085,0,.2.127.155,3.922-1.82,7.689-4.077,11.428-6.25a108.407,108.407,0,0,0,10.934-7.054C275.078,342.749,274.937,342.269,274.6,342.4Z" transform="translate(-158.103 -198.37)" fill="#263238"/>
      <path id="Path_488" data-name="Path 488" d="M238.11,293.612c7.689,26.114,22.22,57.11,27.906,61.949,7.2,6.095,52.92,15.321,55.177,15.42,5.643.226,14.306-40.448,8.324-40.914-9.086-.748-41.944-.536-44.031-2.441s-17.043-18.566-32.449-37.4C242.385,277.162,233.342,277.4,238.11,293.612Z" transform="translate(-164.475 -223.625)" fill="#d3766a"/>
      <path id="Path_489" data-name="Path 489" d="M293.37,355.054a122.835,122.835,0,0,0,16.281,5.784c4.416.988,17.2,3.513,18.778-1.242,1.072-3.245-6.264-5.643-11.413-7.393-2.723-.945-6.151-3.513-5.474-5.262,1.185-3.061,8.183-.494,12.824,1.848,8.973,4.5,21.078,12.867,26.1,8.155,1.9-1.792-.607-4.67-4.232-7.435,5.728,3.118,11.794,5.643,13.981,3.71a2.92,2.92,0,0,0,.4-3.993,3.866,3.866,0,0,0,4.232-.917c1.679-1.989.649-4.712-1.5-7.435a2.1,2.1,0,0,0,1.566-1.171c3.442-6.01-16.577-21.487-23.236-22.644a166.332,166.332,0,0,0-39.954-1.326C294.513,322.266,293.356,355.04,293.37,355.054Z" transform="translate(-141.237 -209.574)" fill="#d3766a"/>
      <path id="Path_490" data-name="Path 490" d="M312.764,329.57a32.928,32.928,0,0,1,13.205,4.232c5.107,2.949,8.592,6.532,12.937,10.1a.116.116,0,1,1-.141.183c-2.074-1.693-10.609-8.028-12.81-9.438a31.193,31.193,0,0,0-13.205-4.938Z" transform="translate(-133.275 -203.63)" fill="#263238"/>
      <path id="Path_491" data-name="Path 491" d="M315.027,323.6a77.814,77.814,0,0,1,15.336,4.232c5.319,2.314,9.622,6.363,13.84,10.243,2.539,2.342,5.037,4.726,7.463,7.167.1.1,0,.282-.141.183q-6.447-6.038-13.233-11.667a41.336,41.336,0,0,0-14.221-7.788c-2.977-.931-6.01-1.637-9.057-2.342C314.9,323.671,314.914,323.586,315.027,323.6Z" transform="translate(-132.378 -206.083)" fill="#263238"/>
      <path id="Path_492" data-name="Path 492" d="M318.5,318.281c5.008.705,9.368,1.312,13.9,3.7a70.385,70.385,0,0,1,14.108,10.694c2.3,2.173,4.529,4.43,6.73,6.715.085.1-.071.254-.155.169A163.9,163.9,0,0,0,337.1,325.547a32.238,32.238,0,0,0-8.761-4.966,57.848,57.848,0,0,0-9.777-2.271S318.486,318.267,318.5,318.281Z" transform="translate(-130.914 -208.269)" fill="#263238"/>
      <path id="Path_493" data-name="Path 493" d="M321.749,328.521,310.575,373.2s-38.092-8.465-45.414-15.378S242.913,313.5,238.074,295.24,242.6,276.9,251.9,288s32.449,38.092,33.634,38.614S321.749,328.521,321.749,328.521Z" transform="translate(-164.495 -223.814)" fill="#ff725e"/>
      <path id="Path_494" data-name="Path 494" d="M287.063,339.83c1.411-5.262,2.822-10.525,3.936-15.844.663-3.033,1.34-6.052,1.975-9.086,0-.113-.169-.169-.2,0-1.58,5.234-3.146,10.5-4.486,15.8s-2.709,10.553-3.964,15.843c-.72,3.019-1.34,6.038-1.876,9.1,0,0,.085.085.113,0C284.312,350.425,285.695,345.135,287.063,339.83Z" transform="translate(-145.723 -209.7)" fill="#263238"/>
      <path id="Path_495" data-name="Path 495" d="M299.784,314.571a19.539,19.539,0,0,1-.183,3.005,17.315,17.315,0,0,1-.72,2.92,18.059,18.059,0,0,1-2.892,5.262,13.149,13.149,0,0,1-4.642,3.8,18.72,18.72,0,0,1-5.756,1.665,32.29,32.29,0,0,1-5.079.282h-.917c-1.989,0-3.979-.212-5.968-.381a116.365,116.365,0,0,0-11.921-.79,22.207,22.207,0,0,0-5.868.79,10.849,10.849,0,0,0-3.924,2.032l-.085-.169a11,11,0,0,1,3.95-2.046,22.161,22.161,0,0,1,5.925-.818,112.234,112.234,0,0,1,11.935.762c1.989.169,3.979.324,5.968.367h1.227a32.908,32.908,0,0,0,4.712-.3,18.344,18.344,0,0,0,5.643-1.651,12.613,12.613,0,0,0,4.613-3.725,18.158,18.158,0,0,0,2.822-5.178,16.929,16.929,0,0,0,.889-5.827,3.183,3.183,0,0,0,0-.367h.31a2.95,2.95,0,0,1-.042.367Zm-11.893-.861v-.071h-.282a.241.241,0,0,1,0,.1,21.236,21.236,0,0,1-5.855,16.309,17.379,17.379,0,0,1-1.284,1.213,2.7,2.7,0,0,1-.31.254,18.62,18.62,0,0,1-3.132,2.088,29.765,29.765,0,0,1-5.544,2.173,81.547,81.547,0,0,0-11.428,3.513,19.849,19.849,0,0,0-3.442,1.989.648.648,0,0,1,.1.141,19.222,19.222,0,0,1,3.428-1.961,81.232,81.232,0,0,1,11.4-3.485,30.542,30.542,0,0,0,5.643-2.173,17.51,17.51,0,0,0,3.372-2.286,1.833,1.833,0,0,0,.324-.254q.579-.508,1.1-1.058a21.3,21.3,0,0,0,3.471-4.881,21.007,21.007,0,0,0,2.074-5.643A21.853,21.853,0,0,0,287.89,313.711Z" transform="translate(-158.302 -210.175)" fill="#fff"/>
      <path id="Path_496" data-name="Path 496" d="M311.72,368.721l-1.115,4.444s-38.092-8.465-45.414-15.378S242.943,313.46,238.1,295.2c-3.541-13.346.522-17,6.589-13.643C261.58,303.147,293.422,343.99,311.72,368.721Z" transform="translate(-164.483 -223.834)" opacity="0.1"/>
      <path id="Path_497" data-name="Path 497" d="M202.33,381.727c2.822,1.072,85.792-18.453,85.792-18.453L279.9,334.394s5.234-8.888,3.456-17.79c-2.356-11.879-23.109-32.265-24.746-33.479-6.631-4.9-12.7-5.841-18.468-3.118C215.86,291.378,202.33,381.727,202.33,381.727Z" transform="translate(-178.638 -224.608)" fill="#ff725e"/>
      <path id="Path_498" data-name="Path 498" d="M276.715,302.106l.127.24h-.931a14.484,14.484,0,0,0-1.749,0,21.006,21.006,0,0,0-5.813,1.2,20.4,20.4,0,0,0-5.276,2.667,22.306,22.306,0,0,0-4.331,4.063,40.792,40.792,0,0,0-3.386,4.9c-1.03,1.693-2,3.442-3.047,5.135a33.108,33.108,0,0,1-3.541,4.853,20.106,20.106,0,0,1-2.187,2.06,15.526,15.526,0,0,1-2.525,1.651,18.184,18.184,0,0,1-5.643,1.876,13.206,13.206,0,0,1-5.982-.4,18.551,18.551,0,0,1-5.347-2.709,34.247,34.247,0,0,1-3.88-3.245l-.254-.254-.423-.4c-1.411-1.411-2.822-2.822-4.105-4.359-1.792-1.989-3.527-4.021-5.375-5.954a1.706,1.706,0,0,0,.071-.254c1.89,1.961,3.668,4.021,5.488,6.038,1.326,1.481,2.681,2.949,4.091,4.345l.635.593.254.254a33.588,33.588,0,0,0,3.654,3.005,18.228,18.228,0,0,0,5.276,2.666,12.8,12.8,0,0,0,5.841.367A18.257,18.257,0,0,0,244,328.6a17.537,17.537,0,0,0,4.628-3.654,31.715,31.715,0,0,0,3.513-4.8c1.044-1.693,2.017-3.428,3.061-5.135a39.238,39.238,0,0,1,3.428-4.91A21.869,21.869,0,0,1,263,306.014a22.39,22.39,0,0,1,11.286-3.894h1.919Zm.776,1.411-.832-.846-.423-.409-.24-.24a32.961,32.961,0,0,0-3.894-3.245,18.343,18.343,0,0,0-5.347-2.709,13.009,13.009,0,0,0-5.982-.4,18.524,18.524,0,0,0-5.643,1.862,17.662,17.662,0,0,0-2.525,1.651,20.226,20.226,0,0,0-2.187,2.074,32.991,32.991,0,0,0-3.541,4.839c-1.044,1.707-2.017,3.442-3.047,5.15a41.414,41.414,0,0,1-3.386,4.9,23.011,23.011,0,0,1-4.317,4.049,22.211,22.211,0,0,1-11.1,3.866,12.253,12.253,0,0,1-1.764,0,1.725,1.725,0,0,1-.381,0,18.794,18.794,0,0,1-3.739-.607,30,30,0,0,1-5.516-2.2c-.889-.452-1.778-.917-2.652-1.411a1.047,1.047,0,0,0,0,.2c.861.466,1.735.945,2.61,1.411a29.146,29.146,0,0,0,5.559,2.229,19.747,19.747,0,0,0,4.049.649h1.9a22.038,22.038,0,0,0,5.883-1.2,21.163,21.163,0,0,0,5.347-2.695,23.208,23.208,0,0,0,4.388-4.091,40.812,40.812,0,0,0,3.414-4.924c1.044-1.707,2.017-3.442,3.061-5.135a34.589,34.589,0,0,1,3.513-4.8,17.609,17.609,0,0,1,4.642-3.64,18.2,18.2,0,0,1,5.643-1.862,12.994,12.994,0,0,1,5.841.381,18.343,18.343,0,0,1,5.276,2.652,33.742,33.742,0,0,1,3.654,3.019l.24.24.649.607c.466.451.917.917,1.411,1.411-.1-.24-.226-.48-.339-.705Z" transform="translate(-175.089 -217.63)" fill="#fff"/>
      <path id="Path_499" data-name="Path 499" d="M249.86,289.432c1.989,2.568,4.134,5.008,6.179,7.52-.917-1.848-1.834-3.682-2.822-5.488h0a39.912,39.912,0,0,1,3.823,6.814,55.5,55.5,0,0,1,4.232,5.982,25.394,25.394,0,0,1,3.315,8.1,21.9,21.9,0,0,1-.183,8.775,56.544,56.544,0,0,1-3.259,9.636c-.169.423-.762.127-.621-.282,1.82-5.474,3.852-11.287,2.906-17.085s-4.232-10.807-7.506-15.519a81.4,81.4,0,0,0-6.25-8.267C249.592,289.46,249.775,289.319,249.86,289.432Z" transform="translate(-159.196 -220.136)" fill="#263238"/>
      <path id="Path_500" data-name="Path 500" d="M238.7,284.823c-16.549,12.7-60.185,64.234-51.071,76.452s71.641,8.155,89.883,2.822c5.432-1.566-8.465-36.089-14.292-37.8-4.811-1.411-31.884,5.925-32.364,4.345s5.432-13.177,15.11-34.043C257.113,272.619,246.024,279.208,238.7,284.823Z" transform="translate(-185.185 -224.19)" fill="#d3766a"/>
      <path id="Path_501" data-name="Path 501" d="M259.76,309.786c12.5.325,15.66,2.328,26.354-3.005,7.054-3.5,12.274-.522,7.506,6.095-7.8,10.835-23.984,13.812-29.952,13.219Z" transform="translate(-155.044 -213.6)" fill="#d3766a"/>
      <path id="Path_502" data-name="Path 502" d="M235.36,314.887s15-5.361,28.357-6.335c9.241-.677,29.5.1,45.259,22.827,3.739,5.389,5.234,15.716-4.063,9.128-6.6-4.684-9.382-9.636-13.713-11.667,0,0,.339,13.375-5.206,16.93a120.8,120.8,0,0,1-15.152,8.2,25.792,25.792,0,0,1-1.792-2.695s-5.488,2.822-14.56.409Z" transform="translate(-165.068 -212.325)" fill="#d3766a"/>
      <path id="Path_503" data-name="Path 503" d="M264.364,309.07c3.894,2.92,12.006,9.241,16.93,16.718,5.375,8.324,13.5,25.776,7.336,29.627-4.529,2.822-8.225-3.527-8.225-3.527s1.834,7.929-2.822,9.622c-4.232,1.552-6.8-3.569-6.8-3.569s.3,4.994-4.091,5.643c-5.262.846-4.994-9.777-11.061-13.53C254.192,349.335,264.364,309.07,264.364,309.07Z" transform="translate(-156.798 -212.052)" fill="#d3766a"/>
      <path id="Path_504" data-name="Path 504" d="M266.855,323.92a39.418,39.418,0,0,1,8.945,21.755c0,.2-.141.31-.183.127a97.094,97.094,0,0,0-8.846-21.769Z" transform="translate(-152.165 -205.951)" fill="#263238"/>
      <path id="Path_505" data-name="Path 505" d="M261.025,327.943c2.455,3.174,7.506,13.163,7.618,22.249,0,.2-.155.31-.183.127a104.531,104.531,0,0,0-7.52-22.291S261.025,327.9,261.025,327.943Z" transform="translate(-154.56 -204.302)" fill="#263238"/>
      <path id="Path_506" data-name="Path 506" d="M275.043,322.863c3.781,1.82,6.052,4.232,9.029,7.054a52.791,52.791,0,0,0,4.6,4.106c1.411,1.143,3.64,2.822,5.643,1.778a3.3,3.3,0,0,0,1.27-3.132,15.873,15.873,0,0,0-1.411-4.9s.071-.113.1,0a22.159,22.159,0,0,1,1.735,4.444,5.36,5.36,0,0,1-.155,3.16c-.945,2.1-3.583,1.961-5.319,1.058a17.281,17.281,0,0,1-2.892-2.046,28.744,28.744,0,0,1-2.525-2.243c-1.693-1.594-3.273-3.273-4.938-4.9a57.31,57.31,0,0,0-5.149-4.232C274.817,322.933,274.887,322.82,275.043,322.863Z" transform="translate(-148.826 -206.389)" fill="#263238"/>
      <path id="Path_507" data-name="Path 507" d="M281.742,338.246a129.795,129.795,0,0,0-6.123-15.321s0-.113.1,0a65.872,65.872,0,0,1,7.054,14.8,22.038,22.038,0,0,1,1.086,8.8c-.691,4.162-3.583,4.5-4.627,4.529a5.474,5.474,0,0,1-3.442-1.2,10.934,10.934,0,0,1-2.709-3.541c0-.071,0-.127.1-.071,1.171,1.876,3.3,3.894,5.643,3.978a3.837,3.837,0,0,0,2.822-.973,4.994,4.994,0,0,0,1.227-3.231,23.265,23.265,0,0,0-1.129-7.774Z" transform="translate(-149.572 -206.381)" fill="#263238"/>
      <path id="Path_508" data-name="Path 508" d="M255.828,326.96l12.556,43.735s-78.173,4.458-82.5-9.735,33.436-60.665,49.11-73.475c18.143-14.8,19.117-8.578,13.219,6.222-6.193,15.519-16.845,37.626-16.845,37.626Z" transform="translate(-185.537 -224.397)" fill="#ff725e"/>
      <path id="Path_509" data-name="Path 509" d="M228.616,321.918l-.127.282a11.562,11.562,0,0,1-1.411,0,18.341,18.341,0,0,1-5.813-1.481,34.786,34.786,0,0,1-4.5-2.328l-.31-.183-.48-.3c-1.693-1.058-3.33-2.2-4.952-3.372-1.89-1.411-3.767-2.751-5.643-4.077l.141-.169c1.919,1.312,3.8,2.709,5.643,4.049,1.622,1.157,3.259,2.3,4.938,3.344l.748.451.31.183a31.941,31.941,0,0,0,4.232,2.159,18.481,18.481,0,0,0,5.728,1.411,13.486,13.486,0,0,0,1.5.028Zm11.512-34.452a18.5,18.5,0,0,0-1.693,2.5,31.559,31.559,0,0,0-2.4,5.488c-.663,1.89-1.227,3.809-1.862,5.643a40.044,40.044,0,0,1-2.257,5.516,22.713,22.713,0,0,1-3.33,4.9A20.934,20.934,0,0,1,224,315.259a21.36,21.36,0,0,1-5.4,2.427,12.7,12.7,0,0,1-1.735.381,1.933,1.933,0,0,1-.4,0,17.6,17.6,0,0,1-3.753.212,29.423,29.423,0,0,1-5.869-.945c-1.933-.494-3.852-1.086-5.77-1.594l-.127.155c1.947.536,3.88,1.143,5.841,1.637a28.878,28.878,0,0,0,5.911.959,18.748,18.748,0,0,0,4.077-.24l.4-.07a13.988,13.988,0,0,0,1.481-.339,22.573,22.573,0,0,0,10.116-6.236,22.233,22.233,0,0,0,3.386-4.938,42.053,42.053,0,0,0,2.286-5.544c.635-1.89,1.213-3.809,1.876-5.643a31.038,31.038,0,0,1,2.384-5.432,17.422,17.422,0,0,1,3.725-4.571,15.6,15.6,0,0,1,2.1-1.524.652.652,0,0,1,.1-.423,16.81,16.81,0,0,0-2.4,1.707A17.86,17.86,0,0,0,240.128,287.466Zm7.125,38.092h-.1a20.32,20.32,0,0,1,.169,2.624v1.834a23.293,23.293,0,0,1-.691,4.063,21.488,21.488,0,0,1-2.243,5.5,19.638,19.638,0,0,1-3.753,4.6,84.734,84.734,0,0,1-9.763,6.857,29.2,29.2,0,0,0-4.627,3.8,19.23,19.23,0,0,0-2.525,3.217l-.212.353c-.254.437-.494.875-.705,1.326a22.955,22.955,0,0,0-2.13,9.523h.254a22.348,22.348,0,0,1,.324-3.753A20.993,20.993,0,0,1,223,359.855a16.32,16.32,0,0,1,.846-1.538,1.567,1.567,0,0,1,.226-.339,18.087,18.087,0,0,1,2.328-2.963,28.8,28.8,0,0,1,4.585-3.781c3.273-2.257,6.828-4.162,9.777-6.9a19.919,19.919,0,0,0,3.767-4.642,21.274,21.274,0,0,0,2.243-5.544,23.151,23.151,0,0,0,.649-3.936v-2a23.994,23.994,0,0,0-.169-2.681Zm4.881,14.955a15.321,15.321,0,0,0-1.848-5.643c-.875-1.665-1.9-3.231-2.906-4.811l-.113-.169A38,38,0,0,1,245.038,326h-.085a38.67,38.67,0,0,0,2.3,4.077l.1.169c.973,1.538,1.975,3.076,2.822,4.684a15.407,15.407,0,0,1,1.806,5.643,12.006,12.006,0,0,1-.917,5.8,10.482,10.482,0,0,1-3.8,4.458,22.294,22.294,0,0,1-5.333,2.5,118.5,118.5,0,0,1-11.555,2.949c-1.947.451-3.894.917-5.8,1.5l-.55.169-.353.1a35.393,35.393,0,0,0-4.712,1.834,18.6,18.6,0,0,0-4.952,3.386,13.078,13.078,0,0,0-3.245,5.037l-.127.381h.31a2.634,2.634,0,0,1,.1-.31,12.9,12.9,0,0,1,3.16-4.938,18.342,18.342,0,0,1,4.867-3.329,33.364,33.364,0,0,1,4.388-1.735,1.6,1.6,0,0,1,.339-.113l.846-.268c1.9-.564,3.837-1.044,5.77-1.5A117.222,117.222,0,0,0,242,353.492a22.431,22.431,0,0,0,5.389-2.624,10.666,10.666,0,0,0,3.852-4.543,12.175,12.175,0,0,0,.889-5.841Z" transform="translate(-179.204 -222.544)" fill="#fff"/>
      <path id="Path_510" data-name="Path 510" d="M200.519,323.486a90.531,90.531,0,0,1,12.062-4.642,87.461,87.461,0,0,1,12.472-2.751c2.4-.381,4.811-.635,7.223-.9.085,0,.085.1,0,.113a112.383,112.383,0,0,0-12.57,2.638q-6.179,1.608-12.274,3.442c-2.314.691-4.585,1.5-6.857,2.271a.1.1,0,0,1-.056-.169Z" transform="translate(-179.394 -209.538)" fill="#263238"/>
      <path id="Path_511" data-name="Path 511" d="M242.354,318.259c-.4,0-22.136,3.428-22.869,3.64.141-.3,5.643-10.652,6.476-12.161.085-.155.155-.31.24-.451.494-.663.988-1.312,1.411-1.975l1.792-2.61h0l-1.891,2.511q-.451.593-.846,1.185c.55-1.072,1.086-2.144,1.622-3.231.861-1.735,1.651-3.485,2.455-5.234,0,0-.071-.1-.1,0-1.622,3.019-3.33,5.982-4.966,8.987s-7.816,14.108-7.788,14.108,23.984-4.232,24.506-4.359a.206.206,0,1,0-.042-.409Z" transform="translate(-172.245 -215.824)" fill="#263238"/>
      <path id="Path_512" data-name="Path 512" d="M235.172,338.476c-1.411-4.881-2.709-9.763-4.232-14.588-.875-2.822-1.749-5.488-2.652-8.225,0-.1-.212,0-.2,0,1.185,4.952,2.384,9.876,3.8,14.8s2.822,9.749,4.232,14.6q1.242,4.148,2.822,8.183h.1C237.924,348.281,236.555,343.385,235.172,338.476Z" transform="translate(-168.055 -209.362)" fill="#263238"/>
      <path id="Path_513" data-name="Path 513" d="M267.383,346.168c-.55-1.411-1.213-3.33-1.82-4.67-.155-.367-.409-.339-.3,0,.381,1.227.649,2.582,1.03,3.837-1.1,0-2.187,0-3.287.1l-3.8.155c-2.469.1-4.952.169-7.421.226q-7.534.127-15.053,0a294.039,294.039,0,0,1-30.107-2.116c-2.822-.367-5.643-.776-8.352-1.27a82.639,82.639,0,0,1-8.126-1.749s-.113.1,0,.127a45.148,45.148,0,0,0,6.984,2.1c2.483.536,4.994,1.016,7.52,1.411,5.022.776,10.073,1.284,15.138,1.651q15.067,1.072,30.191.9,4.232,0,8.465-.183l4.232-.169A27.2,27.2,0,0,0,267.383,346.168Z" transform="translate(-183.66 -199.066)" fill="#263238"/>
      <path id="Path_514" data-name="Path 514" d="M234,287.694c0,1.524,4.783,12.457,11.456,13.643,2.173.381,4.783-11.385,4.783-11.385l.395-.832,5.46-11.54-14-14.108S234,287.059,234,287.694Z" transform="translate(-165.627 -230.785)" fill="#d3766a"/>
      <path id="Path_515" data-name="Path 515" d="M254.506,277.556l-5.46,11.555a25.691,25.691,0,0,1-11.287-17.565c1.411-4.091,2.554-7.491,2.709-7.985a.142.142,0,0,0,0-.071l1.806,1.679Z" transform="translate(-164.082 -230.777)" fill="#263238"/>
      <path id="Path_516" data-name="Path 516" d="M277.159,273.22c-3.132,22.192-16.789,22.827-21.571,22.15-4.345-.621-19.06-3.287-18.228-25.691s12.133-27.962,22.15-27.074S280.305,251.014,277.159,273.22Z" transform="translate(-164.261 -239.393)" fill="#d3766a"/>
      <path id="Path_517" data-name="Path 517" d="M264.459,263.376c-.508-.169-.931-.409-1.411-.621a2.553,2.553,0,0,1-1.326-.917.8.8,0,0,1,.212-.959,1.989,1.989,0,0,1,2,0,2.907,2.907,0,0,1,1.566,1.411.847.847,0,0,1-1.044,1.086Z" transform="translate(-154.27 -231.961)" fill="#263238"/>
      <path id="Path_518" data-name="Path 518" d="M253.269,261.088h1.552a2.539,2.539,0,0,0,1.58-.3.818.818,0,0,0,.2-.959,1.975,1.975,0,0,0-1.806-.861,2.934,2.934,0,0,0-2,.635.861.861,0,0,0,.48,1.481Z" transform="translate(-158.02 -232.636)" fill="#263238"/>
      <path id="Path_519" data-name="Path 519" d="M255.792,263.22s-.127,0-.141.113c-.226,1.51-.762,3.2-2.2,3.442v.085C255.143,266.945,255.82,264.687,255.792,263.22Z" transform="translate(-157.637 -230.888)" fill="#263238"/>
      <path id="Path_520" data-name="Path 520" d="M255.086,261.947c-2.37-.635-3.471,4.232-1.27,4.769S257.09,262.483,255.086,261.947Z" transform="translate(-157.975 -231.434)" fill="#263238"/>
      <path id="Path_521" data-name="Path 521" d="M254.517,262.222c-.48.169-1,.564-1.51.494s-.931-.677-1.2-1.256h-.1a1.792,1.792,0,0,0,.875,2.3c.861.339,1.693-.324,2.144-1.2C254.814,262.377,254.715,262.095,254.517,262.222Z" transform="translate(-158.408 -231.611)" fill="#263238"/>
      <path id="Path_522" data-name="Path 522" d="M261.157,264.3s.1.1.085.155c-.4,1.411-.607,3.231.621,4.049v.071C260.183,267.954,260.479,265.626,261.157,264.3Z" transform="translate(-154.692 -230.444)" fill="#263238"/>
      <path id="Path_523" data-name="Path 523" d="M262.752,263.425c2.441.4,1.411,5.234-.776,4.867S260.72,263.1,262.752,263.425Z" transform="translate(-154.65 -230.81)" fill="#263238"/>
      <path id="Path_524" data-name="Path 524" d="M262.933,263.8c.339.339.621.875,1.072.988s1.016-.3,1.411-.734h.071c-.155.917-.663,1.82-1.58,1.834s-1.284-.917-1.326-1.876C262.622,263.9,262.806,263.674,262.933,263.8Z" transform="translate(-153.886 -230.665)" fill="#263238"/>
      <path id="Path_525" data-name="Path 525" d="M252.815,272.445c.254.451.466,1.016.988,1.213a4.036,4.036,0,0,0,1.693,0s.085,0,0,.085a2.032,2.032,0,0,1-2.088.282,1.637,1.637,0,0,1-.8-1.622C252.646,272.388,252.773,272.388,252.815,272.445Z" transform="translate(-157.99 -227.119)" fill="#263238"/>
      <path id="Path_526" data-name="Path 526" d="M259.762,273.767s-.183,2.3-.409,3.358c0,.1-.282.085-.649,0h0a5.107,5.107,0,0,1-4.444-2.92c0-.113.113-.2.183-.113a7.661,7.661,0,0,0,4.232,2.3c.141-.268.183-3.936.353-3.908a8.973,8.973,0,0,1,2.257,1.058c.508-4.769.254-9.579.832-14.32a.141.141,0,1,1,.282,0,77.514,77.514,0,0,1-.226,15.519C262.132,275.3,260.143,274.049,259.762,273.767Z" transform="translate(-157.304 -232.589)" fill="#263238"/>
      <path id="Path_527" data-name="Path 527" d="M258.449,272.261a5.729,5.729,0,0,1-2.6,1.312,2.525,2.525,0,0,1-1.566-.2c-1.072-.508-.9-1.538-.522-2.384a6.224,6.224,0,0,1,.762-1.241A7.449,7.449,0,0,0,258.449,272.261Z" transform="translate(-157.627 -228.205)" fill="#263238"/>
      <path id="Path_528" data-name="Path 528" d="M255.893,273.212a2.525,2.525,0,0,1-1.566-.2c-1.072-.508-.9-1.538-.522-2.384a2.7,2.7,0,0,1,2.088,2.582Z" transform="translate(-157.611 -227.844)" fill="#ff9bbc"/>
      <path id="Path_529" data-name="Path 529" d="M237.22,271.445a9.269,9.269,0,0,0,7.054-5.756,24.2,24.2,0,0,0,11.71-4.8c-.282.395-2.271,3.3-3.33,4.74,14.433,1.51,21.769-7.7,21.769-7.7a24.647,24.647,0,0,1,3.386,10.44s2.6-8.352,0-15.251a14.108,14.108,0,0,0-10.821-9.283,20.189,20.189,0,0,0-20.612.2C234.638,251.073,237.22,271.445,237.22,271.445Z" transform="translate(-164.403 -239.973)" fill="#263238"/>
      <path id="Path_530" data-name="Path 530" d="M258.264,262.161a26.679,26.679,0,0,1-7.774.494h0a22.22,22.22,0,0,0,11.837-3.09,21.163,21.163,0,0,0,4.233-3.245,14.644,14.644,0,0,0,3.372-4.67.1.1,0,0,1,.2.071,17.2,17.2,0,0,1-2.681,5.079,15.787,15.787,0,0,1-4.388,3.626,18.338,18.338,0,0,1-4.74,1.778" transform="translate(-158.853 -235.669)" fill="#263238"/>
      <path id="Path_531" data-name="Path 531" d="M242.228,265.372s-3.2-7.915-6.687-6.927-2.187,11.7,1.143,13.882a3.8,3.8,0,0,0,5.4-.846Z" transform="translate(-165.842 -232.885)" fill="#d3766a"/>
      <path id="Path_532" data-name="Path 532" d="M235.271,260.59s-.085,0,0,.085c2.314,1.622,3.1,4.232,3.471,6.955a2.088,2.088,0,0,0-2.92-1.256c-.071,0,0,.155,0,.155a2.314,2.314,0,0,1,2.314,1.411,10.918,10.918,0,0,1,.734,2.3c.071.254.508.226.48,0v-.071C240.152,266.812,238.685,261.719,235.271,260.59Z" transform="translate(-165.12 -231.968)" fill="#263238"/>
      <rect id="Rectangle_104" data-name="Rectangle 104" width="92.31" height="4.134" transform="translate(99.975 156.47)" fill="#c7c7c7"/>
      <path id="Path_533" data-name="Path 533" d="M340.1,351.21v4.134H277.36l3.16-4.134Z" transform="translate(-147.814 -194.74)" fill="#a6a6a6"/>
      <path id="Path_534" data-name="Path 534" d="M282.42,371.932h89.968l7.491-61.1H289.911Z" transform="translate(-145.735 -211.329)" fill="#c7c7c7"/>
      <path id="Path_535" data-name="Path 535" d="M313.08,334.084a5.361,5.361,0,0,0,5.375,5.474,5.643,5.643,0,0,0,5.573-5.474,5.347,5.347,0,0,0-5.375-5.474A5.643,5.643,0,0,0,313.08,334.084Z" transform="translate(-133.14 -204.025)" fill="#fff"/>
    </g>
    <g id="freepik--speech-bubble--inject-8" transform="translate(368.577 274.651)">
      <path id="Path_536" data-name="Path 536" d="M346.54,244.124a33.648,33.648,0,0,1-56.235,21.289L273.46,267.9l8.465-14.56a33.662,33.662,0,1,1,64.644-9.213Z" transform="translate(-271.974 -206.349)" fill="#fff"/>
      <path id="Path_537" data-name="Path 537" d="M337.154,216.253A34.367,34.367,0,0,0,281.2,253.442l-8.747,15.223a.409.409,0,0,0,0,.381.339.339,0,0,0,.353.141l17.663-2.737A34.2,34.2,0,0,0,307,274.491a30.028,30.028,0,0,0,4.684.494H313.1a20.872,20.872,0,0,0,2.5-.1h.832a32.957,32.957,0,0,0,9.142-2.173,33.408,33.408,0,0,0,8.2-4.557,24.378,24.378,0,0,0,2.61-2.159l1-.917.931-1a21.663,21.663,0,0,0,2.13-2.525,34.071,34.071,0,0,0,6.871-17.24h0A34.4,34.4,0,0,0,337.154,216.253Zm9.452,28.019a33.168,33.168,0,0,1-6.828,16.817,22.946,22.946,0,0,1-2.088,2.441c-.324.324-.635.663-.917.973l-.988.875a21.541,21.541,0,0,1-2.554,2.074,30.941,30.941,0,0,1-8.028,4.331,33.48,33.48,0,0,1-8.874,1.961h-.818a25.874,25.874,0,0,1-3.767,0,27.8,27.8,0,0,1-4.5-.55,32.6,32.6,0,0,1-15.942-8.155l-.155-.155a.4.4,0,0,0-.24-.1h0l-15.152,2.13,7.661-13.121a.339.339,0,0,0,0-.31l-.113-.3a33.337,33.337,0,0,1-2.342-14.5,32.561,32.561,0,0,1,4.232-14.108,34.354,34.354,0,0,1,9.974-10.877,32.922,32.922,0,0,1,51.438,30.572Z" transform="translate(-272.407 -206.524)" fill="#263238"/>
      <path id="Path_538" data-name="Path 538" d="M294.446,232.834a3.668,3.668,0,1,1-3.668-3.654,3.668,3.668,0,0,1,3.668,3.654Z" transform="translate(-266.366 -197.217)" fill="#263238"/>
      <circle id="Ellipse_11" data-name="Ellipse 11" cx="3.654" cy="3.654" r="3.654" transform="translate(37.843 31.963)" fill="#263238"/>
      <circle id="Ellipse_12" data-name="Ellipse 12" cx="3.654" cy="3.654" r="3.654" transform="translate(54.928 31.963)" fill="#263238"/>
    </g>
  </g>
</svg>
