<svg xmlns="http://www.w3.org/2000/svg" width="812" height="704.24" viewBox="0 0 812 704.24">
  <g id="App_data-cuate" data-name="App data-cuate" transform="translate(-38.177 -42.29)">
    <g id="freepik--background-complete--inject-95" transform="translate(38.177 49.572)">
      <rect id="Rectangle_3" data-name="Rectangle 3" width="58.454" height="18.604" transform="translate(40.887 551.94)" fill="#ebebeb"/>
      <rect id="Rectangle_4" data-name="Rectangle 4" width="58.454" height="18.604" transform="translate(75.999 334.965)" fill="#ebebeb"/>
      <path id="Path_162" data-name="Path 162" d="M101.912,411.745c-9.742.166-34.3.582-43.708.682H42.71V392.31h.831l29.227.116c7.265,0,21.945.216,29.227.316h.4v.4Zm0,0-.4-18.6.4.4c-7.3.1-21.945.249-29.227.316l-29.227.116.831-.831v18.6l-.765-.765H58.005c9.26.116,34.381.532,43.974.7Z" transform="translate(-35.174 182.324)" fill="#ebebeb"/>
      <path id="Path_163" data-name="Path 163" d="M300.849,213.538c-9.742.166-34.3.582-43.708.682H241.63v-20.2h.831l29.227.116c7.265,0,21.945.216,29.227.316h.4v.4l-.382,18.6Zm0,0-.416-18.6.4.382c-7.3.116-21.945.266-29.227.332l-29.227.116.831-.831-.083,18.6-.748-.765h14.481c9.26.116,34.381.532,43.974.7Z" transform="translate(153.128 50.952)" fill="#ebebeb"/>
      <path id="Path_164" data-name="Path 164" d="M281.236,227.641c-9.726.166-34.281.582-43.708.682H222V208.14h.848l29.21.116c7.282,0,21.962.216,29.227.316h.416v.4l-.4,18.6Zm0,0-.382-18.6.382.382c-7.282.116-21.929.266-29.227.333l-29.21.116.831-.831v18.6l-.748-.765h14.481c9.26.116,34.381.532,43.957.7Z" transform="translate(134.672 60.307)" fill="#ebebeb"/>
      <rect id="Rectangle_5" data-name="Rectangle 5" width="58.454" height="18.604" transform="translate(319.6 245.887)" fill="#ebebeb"/>
      <rect id="Rectangle_6" data-name="Rectangle 6" width="58.454" height="18.604" transform="translate(743.969 575.398)" fill="#ebebeb"/>
      <rect id="Rectangle_7" data-name="Rectangle 7" width="58.454" height="18.604" transform="translate(711.367 0.914)" fill="#ebebeb"/>
      <path id="Path_165" data-name="Path 165" d="M480.465,80.291c-9.742.166-34.3.582-43.708.682H421.263v-.748l-.083-18.6V60.79h.831l29.227.116c7.282,0,21.945.216,29.227.316h.4v.4l-.4,18.6Zm0,0-.4-18.6.4.382c-7.3.116-21.929.266-29.227.333l-29.227.116.831-.831v18.6l-.765-.765h14.481c9.277.116,34.4.532,43.974.7Z" transform="translate(321.957 -37.315)" fill="#ebebeb"/>
      <path id="Path_166" data-name="Path 166" d="M121.522,66.188c-9.742.166-34.3.582-43.708.682H62.32V46.67h.831l29.227.116c7.282,0,21.945.216,29.227.316h.4v.4l-.4,18.6Zm0,0-.4-18.6.4.382c-7.3.116-21.945.266-29.227.333l-29.227.116.831-.831v18.6l-.831-.682H77.549c9.26.116,34.381.532,43.974.7Z" transform="translate(-22.182 -46.67)" fill="#ebebeb"/>
      <path id="Path_167" data-name="Path 167" d="M324.262,437.452c-9.742.166-34.3.582-43.708.682H265.06V418h.831l29.227.116c7.282,0,21.945.216,29.227.316h.4v.4l-.382,18.6Zm0,0-.4-18.6.4.4c-7.3.1-21.945.249-29.227.316l-29.227.116.831-.831v18.6l-.765-.765h14.481c9.26.116,34.381.532,43.974.7Z" transform="translate(175.159 199.344)" fill="#ebebeb"/>
      <path id="Path_168" data-name="Path 168" d="M156.4,146.873A59.435,59.435,0,1,1,97.634,78.71v59.435Z" transform="translate(-38.177 -25.443)" fill="#ebebeb"/>
      <path id="Path_169" data-name="Path 169" d="M140.678,130.875a57.94,57.94,0,0,1-.648,8.712l-58.77-8.712V71.44a59.369,59.369,0,0,1,59.418,59.435Z" transform="translate(-9.633 -30.259)" fill="#dbdbdb"/>
      <rect id="Rectangle_8" data-name="Rectangle 8" width="63.192" height="1.663" transform="translate(65.891 133.816)" fill="#c7c7c7"/>
      <path id="Path_170" data-name="Path 170" d="M120.6,135.02a5.27,5.27,0,1,1,5.254-5.254A5.27,5.27,0,0,1,120.6,135.02Zm0-8.861a3.608,3.608,0,1,0,3.591,3.608,3.608,3.608,0,0,0-3.591-3.608Z" transform="translate(12.925 4.881)" fill="#c7c7c7"/>
      <rect id="Rectangle_9" data-name="Rectangle 9" width="49.094" height="2.211" transform="translate(174.165 131.322)" fill="#c7c7c7"/>
      <rect id="Rectangle_10" data-name="Rectangle 10" width="27.781" height="2.211" transform="translate(173.382 135.745)" fill="#c7c7c7"/>
      <rect id="Rectangle_11" data-name="Rectangle 11" width="15.678" height="111.555" transform="translate(356.657 347.55)" fill="#ebebeb"/>
      <rect id="Rectangle_12" data-name="Rectangle 12" width="15.678" height="84.556" transform="translate(387.818 374.549)" fill="#ebebeb"/>
      <rect id="Rectangle_13" data-name="Rectangle 13" width="15.678" height="42.278" transform="translate(418.96 416.827)" fill="#ebebeb"/>
      <rect id="Rectangle_14" data-name="Rectangle 14" width="15.678" height="66.418" transform="translate(450.121 392.671)" fill="#ebebeb"/>
      <rect id="Rectangle_15" data-name="Rectangle 15" width="15.678" height="91.788" transform="translate(481.282 367.317)" fill="#ebebeb"/>
      <rect id="Rectangle_16" data-name="Rectangle 16" width="15.678" height="106.701" transform="translate(512.423 352.404)" fill="#ebebeb"/>
      <path id="Path_171" data-name="Path 171" d="M218.4,247.18l.183,31.438.083,31.438.133,62.877-.4-.4h43.226l43.226.1,43.226.083,43.226.233-43.226.233-43.226.083-43.226.083H218v-.382l.133-62.877V278.651Z" transform="translate(141.757 86.172)" fill="#ebebeb"/>
      <path id="Path_172" data-name="Path 172" d="M216.16,251.179a13.55,13.55,0,0,1,6.916,0A14.048,14.048,0,0,1,216.16,251.179Z" transform="translate(125.395 88.524)" fill="#ebebeb"/>
      <path id="Path_173" data-name="Path 173" d="M216.16,256.892a14.049,14.049,0,0,1,6.916,0,11.772,11.772,0,0,1-3.458.449,12.353,12.353,0,0,1-3.458-.449Z" transform="translate(125.395 92.32)" fill="#ebebeb"/>
      <path id="Path_174" data-name="Path 174" d="M216.16,262.642a14.049,14.049,0,0,1,6.916,0A13.549,13.549,0,0,1,216.16,262.642Z" transform="translate(125.395 96.13)" fill="#ebebeb"/>
      <path id="Path_175" data-name="Path 175" d="M216.16,268.4a13.549,13.549,0,0,1,6.916,0A13.55,13.55,0,0,1,216.16,268.4Z" transform="translate(125.395 99.933)" fill="#ebebeb"/>
      <path id="Path_176" data-name="Path 176" d="M216.16,274.179a13.55,13.55,0,0,1,6.916,0,13.55,13.55,0,0,1-6.916,0Z" transform="translate(125.395 103.762)" fill="#ebebeb"/>
      <path id="Path_177" data-name="Path 177" d="M216.16,279.9a13.55,13.55,0,0,1,6.916,0,14.049,14.049,0,0,1-6.916,0Z" transform="translate(125.395 107.552)" fill="#ebebeb"/>
      <path id="Path_178" data-name="Path 178" d="M216.16,285.632a14.049,14.049,0,0,1,6.916,0A13.549,13.549,0,0,1,216.16,285.632Z" transform="translate(125.395 111.361)" fill="#ebebeb"/>
      <path id="Path_179" data-name="Path 179" d="M216.16,291.382a14.049,14.049,0,0,1,6.916,0A13.549,13.549,0,0,1,216.16,291.382Z" transform="translate(125.395 115.17)" fill="#ebebeb"/>
      <path id="Path_180" data-name="Path 180" d="M216.16,297.179a13.55,13.55,0,0,1,6.916,0,13.55,13.55,0,0,1-6.916,0Z" transform="translate(125.395 119)" fill="#ebebeb"/>
      <path id="Path_181" data-name="Path 181" d="M216.16,302.889a13.55,13.55,0,0,1,6.916,0A13.55,13.55,0,0,1,216.16,302.889Z" transform="translate(125.395 122.783)" fill="#ebebeb"/>
      <path id="Path_182" data-name="Path 182" d="M216.16,308.639a13.55,13.55,0,0,1,6.916,0,14.049,14.049,0,0,1-6.916,0Z" transform="translate(125.395 126.592)" fill="#ebebeb"/>
      <path id="Path_183" data-name="Path 183" d="M216.16,314.39a12.353,12.353,0,0,1,3.458-.449,11.77,11.77,0,0,1,3.458.449A14.049,14.049,0,0,1,216.16,314.39Z" transform="translate(125.395 130.401)" fill="#ebebeb"/>
    </g>
    <g id="freepik--Table--inject-95" transform="translate(43.685 723.928)">
      <path id="Path_184" data-name="Path 184" d="M41.49,453.053c256.159-1.014,543.537-1.014,799.658,0-256.159,1.031-543.537,1.014-799.658,0Z" transform="translate(-41.49 -452.293)" fill="#263238"/>
    </g>
    <g id="freepik--Device--inject-95" transform="translate(522.508 42.29)">
      <path id="Path_185" data-name="Path 185" d="M565.579,42.29h-272.5a27.814,27.814,0,0,0-27.565,28.08V631.188a27.847,27.847,0,0,0,27.565,28.08h272.5a27.864,27.864,0,0,0,27.6-28.08V70.37A27.847,27.847,0,0,0,565.579,42.29ZM575.92,613.848c0,14.763-11.056,26.717-24.688,26.717H307.439c-13.666,0-24.722-11.953-24.722-26.717V91.683c0-30.075,11.056-31.588,24.722-31.588h48.828c2.843,0,5.154,3.225,5.154,7.215v1.663c0,9.36,5.137,9.393,11.422,9.393H485.778c6.351,0,11.438,0,11.438-9.393V67.311c0-3.99,2.294-7.215,5.17-7.215H551.2c13.633,0,24.688,4.007,24.688,31.588Z" transform="translate(-265.509 -42.29)" fill="#263238"/>
      <path id="Path_186" data-name="Path 186" d="M569,84.588V606.752c0,14.763-11.056,26.717-24.688,26.717H300.582c-13.666,0-24.722-11.954-24.722-26.717V84.588C275.86,54.513,286.916,53,300.582,53H349.41c2.843,0,5.154,3.225,5.154,7.215v1.663c0,9.36,5.137,9.393,11.422,9.393H478.92c6.351,0,11.438,0,11.438-9.393V60.215c0-3.99,2.294-7.215,5.17-7.215H544.34C557.94,53,569,56.99,569,84.588Z" transform="translate(-258.652 -35.194)" fill="#fff"/>
      <g id="freepik--u5Zjqx--inject-95" transform="translate(71.722 27.382)">
        <path id="Path_187" data-name="Path 187" d="M319.207,60.9c-.15.15-.316.3-.466.465l-.266.266a6.434,6.434,0,0,0-9.094,0l-.266-.266-.466-.465h0l.582-.515a7.331,7.331,0,0,1,3.209-1.5,5.508,5.508,0,0,0,.914-.133h1.5a7.3,7.3,0,0,1,1.663.416,7.644,7.644,0,0,1,1.13.515,8.413,8.413,0,0,1,1.081.765l.5.449Z" transform="translate(-308.65 -58.76)" fill="#c7c7c7"/>
        <path id="Path_188" data-name="Path 188" d="M310.3,62.3l-.748-.732a5.287,5.287,0,0,1,3.026-1.53,5.37,5.37,0,0,1,4.572,1.513l-.748.748a4.323,4.323,0,0,0-6.1,0Z" transform="translate(-308.054 -57.948)" fill="#c7c7c7"/>
        <path id="Path_189" data-name="Path 189" d="M315.075,62.2l-.748.748a2.208,2.208,0,0,0-3.126,0l-.732-.748A3.325,3.325,0,0,1,315.075,62.2Z" transform="translate(-307.444 -57.095)" fill="#c7c7c7"/>
        <path id="Path_190" data-name="Path 190" d="M312.8,62.945a.682.682,0,1,1-.682-.665.665.665,0,0,1,.682.665Z" transform="translate(-306.802 -56.428)" fill="#c7c7c7"/>
      </g>
      <path id="Path_191" data-name="Path 191" d="M287.36,61.675a1.945,1.945,0,1,1,1.945,1.945A1.945,1.945,0,0,1,287.36,61.675Z" transform="translate(-251.033 -30.736)" fill="#c7c7c7"/>
      <path id="Path_192" data-name="Path 192" d="M291,61.675a1.945,1.945,0,1,1,1.945,1.945A1.945,1.945,0,0,1,291,61.675Z" transform="translate(-248.621 -30.736)" fill="#c7c7c7"/>
      <path id="Path_193" data-name="Path 193" d="M294.72,61.675a1.945,1.945,0,1,1,1.945,1.945A1.945,1.945,0,0,1,294.72,61.675Z" transform="translate(-246.157 -30.736)" fill="#c7c7c7"/>
      <path id="Path_194" data-name="Path 194" d="M298.41,61.675a1.929,1.929,0,1,1,.559,1.374,1.945,1.945,0,0,1-.559-1.374Z" transform="translate(-243.712 -30.736)" fill="#c7c7c7"/>
      <path id="Path_195" data-name="Path 195" d="M302.09,61.675a1.929,1.929,0,1,1,.559,1.374,1.945,1.945,0,0,1-.559-1.374Z" transform="translate(-241.274 -30.736)" fill="#c7c7c7"/>
      <path id="Path_196" data-name="Path 196" d="M445.3,66.382H429.49V59.05H445.3Zm-14.963-.815h14.214V59.848H430.338Z" transform="translate(-156.869 -31.186)" fill="#c7c7c7"/>
      <rect id="Rectangle_17" data-name="Rectangle 17" width="10.191" height="4.838" transform="translate(273.868 29.111)" fill="#c7c7c7"/>
      <rect id="Rectangle_18" data-name="Rectangle 18" width="1.413" height="3.924" transform="translate(288.382 29.56)" fill="#c7c7c7"/>
      <path id="Path_197" data-name="Path 197" d="M386.322,58.517h-30.79a1.912,1.912,0,0,1-1.912-1.912h0a1.912,1.912,0,0,1,1.912-1.9h30.79a1.912,1.912,0,0,1,1.912,1.9h0A1.912,1.912,0,0,1,386.322,58.517Z" transform="translate(-207.134 -34.062)" fill="#fff"/>
      <path id="Path_198" data-name="Path 198" d="M303.958,386.33h-1.43v6.584h-2.693v-3.342H295.1v3.342H292.42V386.33h-1.43l6.484-6.7Z" transform="translate(-248.628 181.205)" fill="#ebebeb"/>
      <rect id="Rectangle_19" data-name="Rectangle 19" width="15.628" height="2.228" transform="translate(271.906 560.835)" fill="#ebebeb"/>
      <rect id="Rectangle_20" data-name="Rectangle 20" width="15.628" height="2.228" transform="translate(271.906 566.371)" fill="#ebebeb"/>
      <rect id="Rectangle_21" data-name="Rectangle 21" width="15.628" height="2.228" transform="translate(271.906 571.89)" fill="#ebebeb"/>
      <path id="Path_199" data-name="Path 199" d="M371.034,384.068l-4.439,4.738-4.456-4.738.8-.748,3.658,3.907,3.658-3.907Z" transform="translate(-201.489 183.649)" fill="#ebebeb"/>
      <path id="Path_200" data-name="Path 200" d="M368.046,396.01a8.08,8.08,0,1,1,8.063-8.08,8.08,8.08,0,0,1-8.063,8.08Zm0-15.079a7.016,7.016,0,1,0,7,7A7.016,7.016,0,0,0,368.046,380.931Z" transform="translate(-202.94 181.35)" fill="#ebebeb"/>
      <rect id="Rectangle_22" data-name="Rectangle 22" width="262.113" height="76.509" transform="translate(32.736 56.709)" fill="#ff725e"/>
      <path id="Path_201" data-name="Path 201" d="M297.622,97.663l-8.662-8.13,8.662-8.113,1.347,1.43-7.132,6.683,7.132,6.683Z" transform="translate(-249.973 -16.366)" fill="#fff"/>
      <path id="Path_202" data-name="Path 202" d="M440.435,83.923a1.663,1.663,0,1,1-1.663-1.663A1.663,1.663,0,0,1,440.435,83.923Z" transform="translate(-151.82 -15.809)" fill="#fff"/>
      <path id="Path_203" data-name="Path 203" d="M440.435,87.573a1.663,1.663,0,1,1-1.663-1.663A1.663,1.663,0,0,1,440.435,87.573Z" transform="translate(-151.82 -13.391)" fill="#fff"/>
      <path id="Path_204" data-name="Path 204" d="M440.435,91.213a1.663,1.663,0,1,1-1.663-1.663A1.663,1.663,0,0,1,440.435,91.213Z" transform="translate(-151.82 -10.979)" fill="#fff"/>
      <path id="Path_205" data-name="Path 205" d="M302.09,86.633c30.158-1.114,60.532-1.114,90.707,0C362.622,87.747,332.248,87.747,302.09,86.633Z" transform="translate(-241.274 -13.465)" fill="#fff"/>
      <path id="Path_206" data-name="Path 206" d="M302.09,91.354c20.366-.549,42.777-.549,63.176,0C344.9,91.9,322.489,91.886,302.09,91.354Z" transform="translate(-241.274 -10.057)" fill="#fff"/>
      <path id="Path_207" data-name="Path 207" d="M320.13,108.154c46.75-.515,99.2-.515,145.936,0C419.333,108.669,366.88,108.669,320.13,108.154Z" transform="translate(-229.322 1.09)" fill="#fff"/>
      <path id="Path_208" data-name="Path 208" d="M292.38,160.387c41.364-.3,82.744-.233,124.107-.349s82.744,0,124.124.349c-41.38.283-82.744.216-124.124.333S333.744,160.669,292.38,160.387Z" transform="translate(-247.707 35.691)" fill="#455a64"/>
      <path id="Path_209" data-name="Path 209" d="M292.38,177.15c41.364-.283,82.744-.216,124.107-.333s82.744,0,124.124.333c-41.38.3-82.744.233-124.124.349S333.744,177.516,292.38,177.15Z" transform="translate(-247.707 46.808)" fill="#455a64"/>
      <path id="Path_210" data-name="Path 210" d="M292.38,194.01c41.364-.283,82.744-.216,124.107-.332s82.744,0,124.124.332c-41.38.3-82.744.233-124.124.349S333.744,194.243,292.38,194.01Z" transform="translate(-247.707 57.978)" fill="#455a64"/>
      <path id="Path_211" data-name="Path 211" d="M292.38,210.83c41.364-.283,82.744-.216,124.107-.333s82.744,0,124.124.333c-41.38.3-82.744.216-124.124.349C375.124,211.046,333.744,211.129,292.38,210.83Z" transform="translate(-247.707 69.122)" fill="#455a64"/>
      <path id="Path_212" data-name="Path 212" d="M292.38,227.65c41.364-.3,82.744-.216,124.107-.332s82.744,0,124.124.332c-41.38.3-82.744.216-124.124.349C375.124,227.866,333.744,227.949,292.38,227.65Z" transform="translate(-247.707 80.265)" fill="#455a64"/>
      <path id="Path_213" data-name="Path 213" d="M322.606,149.29c.366,26.135.266,52.253.432,78.388-.15,26.118,0,52.253-.432,78.371-.366-26.118-.266-52.253-.416-78.371C322.34,201.543,322.24,175.408,322.606,149.29Z" transform="translate(-227.957 28.6)" fill="#455a64"/>
      <path id="Path_214" data-name="Path 214" d="M348.426,149.29c.366,26.135.266,52.253.432,78.388-.166,26.118,0,52.253-.432,78.371-.366-26.118-.266-52.253-.416-78.371C348.16,201.543,347.993,175.408,348.426,149.29Z" transform="translate(-210.851 28.6)" fill="#455a64"/>
      <path id="Path_215" data-name="Path 215" d="M374.252,149.29c.366,26.135.266,52.253.416,78.388-.15,26.118,0,52.253-.416,78.371-.366-26.118-.266-52.253-.432-78.371C373.986,201.543,373.887,175.408,374.252,149.29Z" transform="translate(-193.751 28.6)" fill="#455a64"/>
      <path id="Path_216" data-name="Path 216" d="M400.072,149.29c.366,26.135.266,52.253.416,78.388-.15,26.118,0,52.253-.416,78.371-.366-26.118-.283-52.253-.432-78.371C399.806,201.543,399.707,175.408,400.072,149.29Z" transform="translate(-176.645 28.6)" fill="#455a64"/>
      <path id="Path_217" data-name="Path 217" d="M425.892,149.29c.366,26.135.266,52.253.416,78.388-.15,26.118,0,52.253-.416,78.371-.366-26.118-.283-52.253-.432-78.371C425.61,201.543,425.527,175.408,425.892,149.29Z" transform="translate(-159.539 28.6)" fill="#455a64"/>
      <path id="Path_218" data-name="Path 218" d="M296.14,240.675c7.581,0,12.1-28.4,22.826-28.4s11.87,20.715,20.9,20.715,8.761-36.393,20.9-36.393,9.327,14.763,22.028,14.763S390.671,177,403.971,177s7.914,47.249,21.746,47.249c8.761,0,12.136-14.963,22.594-14.963,6.916,0,10.989,7.5,20.033,7.5s11.023-28.861,22.328-28.861S503.257,205,511.569,205s11.289-27.964,26.6-27.964V287.657H296.14Z" transform="translate(-245.216 46.958)" fill="#ff725e" opacity="0.5"/>
      <path id="Path_219" data-name="Path 219" d="M296.14,240.675c7.581,0,12.1-28.4,22.826-28.4s11.87,20.715,20.9,20.715,8.761-36.393,20.9-36.393,9.327,14.763,22.028,14.763S390.671,177,403.971,177s7.914,47.249,21.746,47.249c8.761,0,12.136-14.963,22.594-14.963,6.916,0,10.989,7.5,20.033,7.5s11.023-28.861,22.328-28.861S503.257,205,511.569,205s11.289-27.964,26.6-27.964V287.657H296.14Z" transform="translate(-245.216 46.958)" fill="#ff725e" opacity="0.3"/>
      <path id="Path_220" data-name="Path 220" d="M296.14,242.555v-2.727c2.294,0,5.453-6.65,7.764-11.471,3.957-8.313,8.063-16.924,15.062-16.924,6.65,0,10.058,6.3,13,11.854,2.311,4.356,4.688,8.861,7.9,8.861,2.826,0,5.27-8.745,7.066-15.129,2.926-10.457,5.952-21.264,13.832-21.264,7.032,0,9.792,4.239,12.22,7.98s4.406,6.783,9.809,6.783c4.888,0,6.8-8.013,8.645-15.761,2.178-9.111,4.422-18.537,12.535-18.537s10.108,11.87,12.286,24.439c1.762,10.158,3.94,22.81,9.46,22.81,3.325,0,5.985-3.126,8.845-6.417,3.458-4.023,7.4-8.6,13.749-8.6,3.807,0,6.783,1.862,9.659,3.674s6.135,3.84,10.374,3.84c3.142,0,6-6.866,8.313-12.386,3.325-8.1,6.866-16.476,14.032-16.476s10.607,5.453,13.7,10.258c2.261,3.508,4.389,6.816,7.2,6.816,2.394,0,5.087-5.3,7.481-9.975,4.073-8.013,9.144-17.972,19.069-17.972v2.743c-7.648,0-12.037,8.645-15.927,16.259-3.325,6.534-5.952,11.638-10.624,11.638s-7.465-4.04-10.208-8.313-5.653-8.761-10.69-8.761c-4.722,0-7.947,7.764-10.806,14.614-3.192,7.631-5.935,14.231-11.521,14.231s-9.144-2.344-12.452-4.406c-2.643-1.663-4.988-3.092-7.581-3.092-4.572,0-7.814,3.757-10.973,7.415s-6.55,7.581-11.638,7.581c-8.462,0-10.59-12.22-12.835-25.154-1.663-9.842-3.824-22.078-8.911-22.078s-7.382,8.662-9.194,16.309c-2.211,9.244-4.289,17.972-11.987,17.972s-10.308-4.372-12.818-8.313c-2.261-3.491-4.239-6.517-9.21-6.517s-8.13,10.607-10.524,19.152c-2.693,9.626-4.838,17.24-10.374,17.24s-8.146-5.1-11.023-10.524c-2.66-4.988-5.4-10.191-9.875-10.191S310.3,222.455,307.08,229.2C303.555,236.719,300.778,242.555,296.14,242.555Z" transform="translate(-245.216 46.441)" fill="#ff725e"/>
      <path id="Path_221" data-name="Path 221" d="M391.186,224.315v63.375H348.26V211.364c12.7,0,7.88-34.364,21.18-34.364S377.354,224.315,391.186,224.315Z" transform="translate(-210.685 46.958)" fill="#ff725e" opacity="0.5"/>
      <circle id="Ellipse_1" data-name="Ellipse 1" cx="6.8" cy="6.8" r="6.8" transform="translate(151.939 216.344)" fill="#263238"/>
      <path id="Path_222" data-name="Path 222" d="M366.431,178.06a3.89,3.89,0,1,1-3.89-3.89A3.89,3.89,0,0,1,366.431,178.06Z" transform="translate(-203.802 45.083)" fill="#ff725e"/>
      <rect id="Rectangle_23" data-name="Rectangle 23" width="24.672" height="13.766" transform="translate(146.32 195.429)" fill="#ff725e"/>
      <path id="Path_223" data-name="Path 223" d="M358.98,168.12h6.5l-3.242,4.672Z" transform="translate(-203.583 41.075)" fill="#ff725e"/>
      <path id="Path_224" data-name="Path 224" d="M356.29,162.984a144.128,144.128,0,0,1,15.628,0A153.11,153.11,0,0,1,356.29,162.984Z" transform="translate(-205.365 37.532)" fill="#fff"/>
      <path id="Path_225" data-name="Path 225" d="M356.29,164.584a144.128,144.128,0,0,1,15.628,0A148.467,148.467,0,0,1,356.29,164.584Z" transform="translate(-205.365 38.592)" fill="#fff"/>
      <path id="Path_226" data-name="Path 226" d="M296.458,150.31c.283,25.852.515,51.688.532,77.54l.266,77.523-.8-.632,120.982.15,60.5.133,60.5.349-60.5.349-60.5.133-120.982.166h-.8v-.648l.266-77.523C295.943,202,296.225,176.162,296.458,150.31Z" transform="translate(-245.534 29.275)" fill="#455a64"/>
      <path id="Path_227" data-name="Path 227" d="M303.93,250.818a57.623,57.623,0,0,1,17.24,0,58.737,58.737,0,0,1-17.24,0Z" transform="translate(-240.055 95.435)" fill="#dbdbdb"/>
      <path id="Path_228" data-name="Path 228" d="M285.2,160.488a12.2,12.2,0,0,1,7.847,0A12.419,12.419,0,0,1,285.2,160.488Z" transform="translate(-252.464 35.589)" fill="#dbdbdb"/>
      <path id="Path_229" data-name="Path 229" d="M285.2,177.254a12.419,12.419,0,0,1,7.847,0A12.2,12.2,0,0,1,285.2,177.254Z" transform="translate(-252.464 46.705)" fill="#dbdbdb"/>
      <path id="Path_230" data-name="Path 230" d="M285.2,194.113a12.419,12.419,0,0,1,7.847,0A12.2,12.2,0,0,1,285.2,194.113Z" transform="translate(-252.464 57.875)" fill="#dbdbdb"/>
      <path id="Path_231" data-name="Path 231" d="M285.2,210.934a12.419,12.419,0,0,1,7.847,0A12.2,12.2,0,0,1,285.2,210.934Z" transform="translate(-252.464 69.018)" fill="#dbdbdb"/>
      <path id="Path_232" data-name="Path 232" d="M285.2,227.756a12.3,12.3,0,0,1,7.847,0,12.3,12.3,0,0,1-7.847,0Z" transform="translate(-252.464 80.159)" fill="#dbdbdb"/>
      <path id="Path_233" data-name="Path 233" d="M329.37,250.818a57.524,57.524,0,0,1,17.224,0,58.637,58.637,0,0,1-17.224,0Z" transform="translate(-223.2 95.435)" fill="#dbdbdb"/>
      <path id="Path_234" data-name="Path 234" d="M354.8,250.818a57.624,57.624,0,0,1,17.24,0,58.737,58.737,0,0,1-17.24,0Z" transform="translate(-206.352 95.435)" fill="#dbdbdb"/>
      <path id="Path_235" data-name="Path 235" d="M380.23,250.818a57.624,57.624,0,0,1,17.24,0A58.737,58.737,0,0,1,380.23,250.818Z" transform="translate(-189.504 95.435)" fill="#dbdbdb"/>
      <path id="Path_236" data-name="Path 236" d="M405.66,250.818a57.623,57.623,0,0,1,17.24,0A58.737,58.737,0,0,1,405.66,250.818Z" transform="translate(-172.657 95.435)" fill="#dbdbdb"/>
      <path id="Path_237" data-name="Path 237" d="M431.1,250.818a57.624,57.624,0,0,1,17.24,0A58.737,58.737,0,0,1,431.1,250.818Z" transform="translate(-155.802 95.435)" fill="#dbdbdb"/>
      <path id="Path_238" data-name="Path 238" d="M285.33,134.488c24.339-1.13,48.861-1.13,73.151,0C334.125,135.618,309.6,135.618,285.33,134.488Z" transform="translate(-252.378 18.231)" fill="#dbdbdb"/>
      <path id="Path_239" data-name="Path 239" d="M285.33,139.123a320.865,320.865,0,0,1,46.966,0,325.62,325.62,0,0,1-46.966,0Z" transform="translate(-252.378 21.294)" fill="#dbdbdb"/>
      <path id="Path_240" data-name="Path 240" d="M413.44,139.033a433.928,433.928,0,0,1,46.966,0,442.6,442.6,0,0,1-46.966,0Z" transform="translate(-167.502 21.383)" fill="#ff725e"/>
      <path id="Path_241" data-name="Path 241" d="M286.31,266.338c24.605-1.131,49.427-1.131,74.049,0C335.72,267.468,310.915,267.468,286.31,266.338Z" transform="translate(-251.728 105.585)" fill="#263238"/>
      <path id="Path_242" data-name="Path 242" d="M408.05,266.248q27.947-1.247,55.927,0Q436.03,267.512,408.05,266.248Z" transform="translate(-171.073 105.674)" fill="#ff725e"/>
      <path id="Path_243" data-name="Path 243" d="M316.63,280.34a496.813,496.813,0,0,1,58.188,0,500.406,500.406,0,0,1-58.188,0Z" transform="translate(-231.641 114.858)" fill="#263238"/>
      <path id="Path_244" data-name="Path 244" d="M316.63,285.468a351.659,351.659,0,0,1,48.812,0A351.674,351.674,0,0,1,316.63,285.468Z" transform="translate(-231.641 118.259)" fill="#263238"/>
      <path id="Path_245" data-name="Path 245" d="M544.858,319.972c-.582-.565-259.486,1.663-258.888,0V273.92h.632l129.095.133c43.109.1,86.218,0,129.344.266,0,.15-.249,45.42-.183,45.6Zm0,0-.183-45.42c-41.879.765-86.268.15-128.978.432.582-.449-132.137,1.214-128.546-.432v45.42c-3.525-1.546,258.555.482,257.774,0Z" transform="translate(-251.954 111.17)" fill="#dbdbdb"/>
      <rect id="Rectangle_24" data-name="Rectangle 24" width="32.918" height="32.918" transform="translate(41.265 392.255)" fill="#ff725e"/>
      <path id="Path_246" data-name="Path 246" d="M450.259,294.689a16.459,16.459,0,1,1-2.178-8.18A16.46,16.46,0,0,1,450.259,294.689Z" transform="translate(-164.919 114.025)" fill="#455a64"/>
      <path id="Path_247" data-name="Path 247" d="M441.521,286.509l-14.281,8.18V278.23a16.475,16.475,0,0,1,14.281,8.279Z" transform="translate(-158.359 114.025)" fill="#ff725e"/>
      <circle id="Ellipse_2" data-name="Ellipse 2" cx="11.388" cy="11.388" r="11.388" transform="translate(257.492 397.326)" fill="#fff"/>
      <path id="Path_248" data-name="Path 248" d="M316.63,315.447a500.407,500.407,0,0,1,58.188,0,500.433,500.433,0,0,1-58.188,0Z" transform="translate(-231.641 138.122)" fill="#263238"/>
      <path id="Path_249" data-name="Path 249" d="M316.63,320.6a351.683,351.683,0,0,1,48.812,0,351.673,351.673,0,0,1-48.812,0Z" transform="translate(-231.641 141.533)" fill="#263238"/>
      <path id="Path_250" data-name="Path 250" d="M544.858,355.1c-.582-.565-259.486,1.663-258.888,0V309.05h.632l129.161.183c43.109.1,86.218,0,129.344.266,0,.15-.249,45.42-.183,45.6Zm0,0-.183-45.42c-41.879.765-86.268.15-128.978.432.582-.449-132.137,1.214-128.546-.432V355.1c-3.525-1.546,258.555.482,257.774,0Z" transform="translate(-251.954 134.444)" fill="#dbdbdb"/>
      <rect id="Rectangle_25" data-name="Rectangle 25" width="32.918" height="32.918" transform="translate(41.265 450.659)" fill="#455a64"/>
      <path id="Path_251" data-name="Path 251" d="M450.259,329.819a16.459,16.459,0,1,1-2.178-8.18A16.46,16.46,0,0,1,450.259,329.819Z" transform="translate(-164.919 137.3)" fill="#455a64"/>
      <path id="Path_252" data-name="Path 252" d="M443.7,329.819a16.463,16.463,0,0,1-.183,2.411l-16.276-2.411V313.36A16.459,16.459,0,0,1,443.7,329.819Z" transform="translate(-158.359 137.299)" fill="#ff725e"/>
      <path id="Path_253" data-name="Path 253" d="M443.157,327.792a11.388,11.388,0,1,1-11.372-11.372A11.388,11.388,0,0,1,443.157,327.792Z" transform="translate(-162.904 139.327)" fill="#fff"/>
      <path id="Path_254" data-name="Path 254" d="M316.63,350.577a500.407,500.407,0,0,1,58.188,0,500.46,500.46,0,0,1-58.188,0Z" transform="translate(-231.641 161.396)" fill="#263238"/>
      <path id="Path_255" data-name="Path 255" d="M316.63,355.728a351.664,351.664,0,0,1,48.812,0A351.674,351.674,0,0,1,316.63,355.728Z" transform="translate(-231.641 164.807)" fill="#263238"/>
      <path id="Path_256" data-name="Path 256" d="M544.858,390.232c-.582-.565-259.486,1.663-258.888,0V344.18h.632l129.161.183c43.109.1,86.218,0,129.344.266,0,.15-.249,45.42-.183,45.6Zm0,0-.183-45.42c-41.879.765-86.268.15-128.978.432.582-.449-132.137,1.214-128.546-.432v45.42c-3.525-1.546,258.555.482,257.774,0Z" transform="translate(-251.954 157.718)" fill="#dbdbdb"/>
      <rect id="Rectangle_26" data-name="Rectangle 26" width="32.918" height="32.918" transform="translate(41.265 509.064)" fill="#ff725e"/>
      <path id="Path_257" data-name="Path 257" d="M450.258,364.949A16.442,16.442,0,0,1,439.7,380.311a16.262,16.262,0,0,1-5.9,1.1,16.459,16.459,0,1,1,16.459-16.459Z" transform="translate(-164.918 160.574)" fill="#455a64"/>
      <path id="Path_258" data-name="Path 258" d="M443.7,364.949a16.442,16.442,0,0,1-10.557,15.362l-5.9-15.362V348.49A16.459,16.459,0,0,1,443.7,364.949Z" transform="translate(-158.359 160.574)" fill="#ff725e"/>
      <path id="Path_259" data-name="Path 259" d="M443.157,362.922a11.388,11.388,0,1,1-11.372-11.372,11.388,11.388,0,0,1,11.372,11.372Z" transform="translate(-162.904 162.601)" fill="#fff"/>
    </g>
    <g id="freepik--Plant--inject-95" transform="translate(736.416 520.83)">
      <path id="Path_260" data-name="Path 260" d="M475.819,362.392c-20.549,27.847-42,60.15-47.216,95.08a.466.466,0,1,0,.914.183,207.161,207.161,0,0,1,9.077-27.964c13.516-3.724,26.8-6.783,33.882-20.2,7.249-13.782,6.334-31.771,4.988-46.8C477.282,361.943,476.185,361.943,475.819,362.392Z" transform="translate(-371.37 -308.959)" fill="#ff725e"/>
      <path id="Path_261" data-name="Path 261" d="M434.725,425.956c9.227-20.732,21.1-41.563,36.16-58.587.1-.116.266,0,.166.166-9.875,12.136-17.373,25.37-24.688,38.82,6.816-6.916,14.264-13.1,20.715-20.432.133-.15.333,0,.216.2-6.417,7.681-13.4,16.043-21.746,21.729-2.244,4.123-4.489,8.313-6.783,12.4.565-.316,1.147-.6,1.662-.881.1,0,.2.1.1.15-.648.333-1.28.665-1.929.948-1.081,1.962-2.161,3.924-3.325,5.869C435.207,426.771,434.525,426.388,434.725,425.956Z" transform="translate(-367.333 -305.49)" fill="#263238"/>
      <path id="Path_262" data-name="Path 262" d="M438.883,402.452a120.687,120.687,0,0,0,15.777-10.54c.133-.1.333.083.2.2a83.023,83.023,0,0,1-15.744,10.723.224.224,0,1,1-.233-.382Z" transform="translate(-364.625 -289.218)" fill="#263238"/>
      <path id="Path_263" data-name="Path 263" d="M427.732,473.456c0,.416.765.416.748,0,.116-11.5,0-23.059.183-34.614,2.943-5.935,9.277-9.227,13.666-14a60.63,60.63,0,0,0,8.2-11.422,81.7,81.7,0,0,0,9.526-31.721c1.214-12.3-3.458-52.885-8.645-51.538-2.693.715-11.388,20.831-13.7,27.481a192.119,192.119,0,0,0-8.18,33.782C425.321,418.426,425.67,446.29,427.732,473.456Z" transform="translate(-372.925 -330.13)" fill="#ff725e"/>
      <path id="Path_264" data-name="Path 264" d="M427.17,420.986h0c.632-14.547,3.907-29.244,6.983-43.359,3.325-15.2,7.165-29.51,14.963-43.076.133-.249.515,0,.382.233a159.894,159.894,0,0,0-12.037,33.068c.515-.831,1.147-1.662,1.663-2.377.216-.3.715,0,.515.3a21.2,21.2,0,0,1-2.461,3.441.116.116,0,0,1-.1,0c-2.693,10.873-4.622,21.979-6.268,33.068.116-.133.233-.283.366-.416s.216,0,.166.116c-.2.382-.432.732-.665,1.114-.831,5.619-1.663,11.239-2.377,16.808,9.975-8.562,18.57-18.67,23.408-31.106h.083c-4.722,12.9-12.17,24.373-23.658,32.2-.2,1.5-.416,2.992-.632,4.489,0,.3-.532.233-.532-.083,0-1.313,0-2.643.116-3.973a.316.316,0,0,1,.083-.449Z" transform="translate(-372.446 -327.27)" fill="#263238"/>
      <path id="Path_265" data-name="Path 265" d="M429.939,387.866c7.664-11.438,14.813-22.527,20.416-35.162a.134.134,0,1,1,.249.1c-4.722,12.552-11.338,25.27-20.283,35.362a.249.249,0,0,1-.382-.3Z" transform="translate(-370.494 -315.231)" fill="#263238"/>
      <path id="Path_266" data-name="Path 266" d="M436.058,357.719c3.175-5.619,6.517-11.072,9.51-16.791.083-.166.3,0,.233.133A87.213,87.213,0,0,1,436.54,358a.283.283,0,0,1-.482-.283Z" transform="translate(-366.438 -323.023)" fill="#263238"/>
      <path id="Path_267" data-name="Path 267" d="M435.309,352.44v.1S435.259,352.44,435.309,352.44Z" transform="translate(-366.936 -315.35)" fill="#263238"/>
      <path id="Path_268" data-name="Path 268" d="M435.266,433.257a117.685,117.685,0,0,1-2.693,22.727c.116.815.233,1.663.366,2.477a107.576,107.576,0,0,0,4.04-25.254.765.765,0,0,0,0-.781h0a167.566,167.566,0,0,0-2.477-34.3c-3.558-21.147-11.338-41.43-26.085-57.257a1.047,1.047,0,0,0-1.663.333c-5.952,15.129-3.874,33.25,1.2,48.213a88.118,88.118,0,0,0,11.638,22.926C424.709,419.491,431.177,425.493,435.266,433.257Z" transform="translate(-388.24 -323.199)" fill="#ff725e"/>
      <path id="Path_269" data-name="Path 269" d="M407.595,345.052c13.965,22.677,23.691,49.56,24.938,76.343,0,.466-.781.6-.848.1-.333-2.394-.7-4.788-1.081-7.165h0c-5.786-5.536-11.721-11.372-15.86-18.288,0-.133.116-.266.2-.166a193.528,193.528,0,0,0,15.345,16.775q-1.5-8.878-3.574-17.49c-.382-.416-.748-.865-1.114-1.3s.166-.7.416-.416l.333.382a200.678,200.678,0,0,0-7.3-23.192c-3.558-4.239-7.531-7.914-10.125-13.018,0-.116.1-.216.183-.116,2.078,2.926,4.106,5.869,6.467,8.579.931,1.081,1.978,2.095,2.943,3.142a178.634,178.634,0,0,0-11.5-23.841C406.846,345.052,407.378,344.736,407.595,345.052Z" transform="translate(-385.689 -320.331)" fill="#263238"/>
      <path id="Path_270" data-name="Path 270" d="M409.185,361.873c4.505,6.068,9.659,11.87,13.849,18.155.116.166-.133.349-.283.216-5.4-4.988-9.975-11.97-13.882-18.2C408.753,361.84,409.1,361.69,409.185,361.873Z" transform="translate(-384.454 -309.155)" fill="#263238"/>
      <path id="Path_271" data-name="Path 271" d="M417.857,373.617l.2.2c.133.133-.083.333-.216.2l-.183-.183C417.525,373.7,417.724,373.484,417.857,373.617Z" transform="translate(-378.645 -301.347)" fill="#263238"/>
      <path id="Path_272" data-name="Path 272" d="M394.184,371.768a69.709,69.709,0,0,0,14.747,34.581,36.576,36.576,0,0,0,11.954,9.327c5.17,2.56,10.59,5.52,15.96,7.614a105.321,105.321,0,0,1,5.636,20.067c.183-.582.349-1.2.515-1.779-3.425-29.526-22.544-54.863-46.983-70.973a1.2,1.2,0,0,0-1.829,1.164Z" transform="translate(-394.174 -303.439)" fill="#ff725e"/>
      <path id="Path_273" data-name="Path 273" d="M399.287,376.626a.208.208,0,0,1,.249-.333,100.015,100.015,0,0,1,31.156,38.388c.166.4-.382.765-.615.349-1.13-1.978-2.294-3.924-3.475-5.819h0c-5.569-1.047-10.856-4.988-14.963-8.712-.116-.1,0-.266.166-.166a34.167,34.167,0,0,0,7.049,4.988c2.278,1.147,4.722,1.879,7.1,2.793-2.078-3.325-4.223-6.417-6.467-9.476a65.069,65.069,0,0,1-16.825-9.51c-.166-.116,0-.366.15-.266a169.561,169.561,0,0,0,15.594,8.313A142.987,142.987,0,0,0,407.4,384.34c-1.9-1-3.824-2-5.653-3.076a.153.153,0,1,1,.116-.283,20.569,20.569,0,0,1,4.339,2.128C403.992,380.965,401.731,378.77,399.287,376.626Z" transform="translate(-390.831 -299.568)" fill="#263238"/>
      <path id="Path_274" data-name="Path 274" d="M399.675,382.621a7.29,7.29,0,0,1,.931.665c.1.083,0,.2-.116.166a8.316,8.316,0,0,1-.981-.565C399.342,382.787,399.492,382.5,399.675,382.621Z" transform="translate(-390.687 -295.372)" fill="#263238"/>
      <path id="Path_275" data-name="Path 275" d="M473.183,482.418H406.2l5.4-61,1.2-13.45h53.782l1.2,13.45Z" transform="translate(-386.207 -278.56)" fill="#455a64"/>
      <path id="Path_276" data-name="Path 276" d="M465.627,421.42H409.45l1.2-13.45H464.43Z" transform="translate(-384.053 -278.56)" fill="#263238"/>
      <rect id="Rectangle_27" data-name="Rectangle 27" width="60.2" height="13.317" transform="translate(23.385 120.017)" fill="#455a64"/>
    </g>
    <g id="freepik--speech-bubble--inject-95" transform="translate(328.228 79.608)">
      <path id="Path_277" data-name="Path 277" d="M306.005,122.251A57.241,57.241,0,0,1,214.567,168.2l-28.047,7.165,11.638-26.118a57.257,57.257,0,1,1,107.731-27Z" transform="translate(-185.306 -64.59)" fill="#fff"/>
      <path id="Path_278" data-name="Path 278" d="M306.489,122.4a57.623,57.623,0,0,1-91.721,46.434l.5.1-28.013,7.282-1.463.382.615-1.38,11.638-26.151v.715a57.008,57.008,0,0,1-6.816-25.22c-1.2-26.8,17.806-52.087,43.974-58.088,35.761-9.144,71.6,19.086,71.289,55.927Zm0,0c.116-36.725-35.511-64.589-71.056-55.046-25.353,6.135-43.957,31.156-42.644,57.141a56.924,56.924,0,0,0,6.65,24.522l.183.349-.15.366L187.8,175.815l-.831-1.014,28.08-7.016h.266a56.891,56.891,0,0,0,91.239-45.3Z" transform="translate(-185.79 -64.737)" fill="#263238"/>
      <path id="Path_279" data-name="Path 279" d="M228.593,147.067,202.94,121.082l8.612-8.512,15,15.179L257.687,78.92l10.208,6.517Z" transform="translate(-174.428 -55.34)" fill="#ff725e"/>
    </g>
    <g id="freepik--Character--inject-95" transform="translate(43.687 182.465)">
      <path id="Path_280" data-name="Path 280" d="M284.785,296.008a22.145,22.145,0,0,0,11.521-38.454c8.811-2.161,16.293-8.429,16.825-18.288.565-10.224-6.816-17.988-16.459-19.95,0,0-.1.1,0,.133,8.562,2.76,15.511,10.258,14.863,19.684-.549,8.063-5.7,13-12.269,15.694a24.506,24.506,0,0,0,8.6-17.523,18.953,18.953,0,0,0-11.438-17.689c3.425-7.847,4.356-17.423-.133-25.071a18.969,18.969,0,0,0-18.454-9.493,21.2,21.2,0,0,0-31.172-23.375,17.789,17.789,0,0,0-22.86-19.452,11.954,11.954,0,0,0-7.6-10.474c-4.988-2.128-10.474-.964-15.345,1.014a14.314,14.314,0,0,0-12.253-6.151,13,13,0,0,0-12.053,11.771c-8.313-2.012-17.623-3.026-25.4,1.164-6.4,3.458-11.205,10.391-10.341,17.772a25.736,25.736,0,0,0-28.446,25.952,18.088,18.088,0,0,0-13.616,11.87,26.683,26.683,0,0,0-1.663,12.8,13.55,13.55,0,0,0-9.975,12.336c-.349,5.686,2.427,10.241,6.251,13.982a10.274,10.274,0,0,1,0,4.572,23.525,23.525,0,0,0,6.218,21.43,16.06,16.06,0,0,0,8.313,22.644,18.055,18.055,0,0,0,14,21.114,26.318,26.318,0,0,0,6.65,20.831c4.007,4.289,10.308,7.348,15.927,5.154-.1,4.622,4.605,7.9,9.077,8.313a22.675,22.675,0,0,0,5.087-.283c1.978-.3,4.456-1.2,6.451-.765s3.541,2.411,5.154,3.624a20.762,20.762,0,0,0,3.741,2.228,23.907,23.907,0,0,0,28.878-7.764c6.251,4.655,14.6,2.926,21.048-.765a42.772,42.772,0,0,0,5.819-4.256,10.474,10.474,0,0,1,5.636-2.859c1.4-.166,2.843,0,4.256-.166,4.788-.515,8.03-3.824,10.84-7.432C267.678,331.635,287,314.994,284.785,296.008ZM88.974,222.99a14.3,14.3,0,0,1,8.313-14.331,1.552,1.552,0,0,0,.166.732s-1.48,1.313-2.128,2.028a17.839,17.839,0,0,0-2.843,4.406,18.6,18.6,0,0,0-1.5,10.723,19.685,19.685,0,0,0,1.463,4.655,1.476,1.476,0,0,0,.216.565,17.456,17.456,0,0,1-3.691-8.778Zm102.395-92.4a13.782,13.782,0,0,0-13.55,8.1l-.449-.116c1.546-5.686,4.522-10.457,11.338-10.757a12.02,12.02,0,0,1,10.59,5.636h-.083A15.129,15.129,0,0,0,191.368,130.587Zm59.651,188.53a1.432,1.432,0,0,0,.116-.166,24.838,24.838,0,0,0,31.372-14.6C278.352,318.053,266.83,327.479,251.02,319.117Z" transform="translate(-11.286 -126.605)" fill="#263238"/>
      <path id="Path_281" data-name="Path 281" d="M157,307.939c33.683,72.07,90.774,169.577,116.975,173.684,15.827,2.461,42.594,4.605,62.926-14.564,44.389-41.812,74.813-101.547,91.671-132.22,7.648-13.932-77.922-75.911-88.679-62.76-25.22,30.757-53.666,90.375-58.338,90.192-17.257-.7-42.86-42.71-84.672-81.663C146.522,233.657,142.615,277.149,157,307.939Z" transform="translate(30.219 -38.27)" fill="#ad6359"/>
      <path id="Path_282" data-name="Path 282" d="M348.443,395.2c21.147-22.56,48.911-56.177,48.978-70.325,0-14.83-1.779-67.033-6.118-79.02s-27.565-42.91-38.238-46.983c-8.529-3.325-13.084,7.282-3.175,26.434,11.089,21.413,7.7,30.058,8.213,36.925.532,7.116-11.388,37.373-21.38,39.9-5.9,1.513-18.138,1.446-20.914-9.194s0-20.249-4.106-38.8c-3.225-14.431-15.279-23.392-20.249-20.865s-.848,11.156-4.123,32.768c-2.045,13.483-4.04,23.159-20.116,42.86-14.065,17.24-14.963,41.114-14.963,41.114Z" transform="translate(98.141 -79.128)" fill="#ad6359"/>
      <path id="Path_283" data-name="Path 283" d="M354.729,293.207c-.582-8.13,4.988-32.768,3.059-43.508s-14.53-50.275-26.6-53.5c-15.112-4.04-10.624,28.1-7.415,41.879s-5.6,38.62-5.6,38.62l20.8,8.845Z" transform="translate(141.814 -80.729)" fill="#ad6359"/>
      <path id="Path_284" data-name="Path 284" d="M316.38,282.334c3.724-12.5,8.313-25.2,8.529-38.338-.648-9.41-2.527-18.67-2.976-28.146-.133-5.619-.482-11.754,2.361-16.841a6.351,6.351,0,0,1,4.622-3.109,6.367,6.367,0,0,0-4.239,3.325c-2.377,5.121-1.812,11.023-1.463,16.542.632,7.481,1.862,14.963,2.826,22.461,1.945,15.245-4.239,30.158-9.659,44.107Z" transform="translate(140.628 -80.696)" fill="#263238"/>
      <path id="Path_285" data-name="Path 285" d="M351.738,298.777c1.663-7.914,13.782-29.792,14.963-40.6s.1-52.12-10.441-58.687c-13.3-8.313-17.855,23.691-18.6,37.772s-16.027,35.179-16.027,35.179l17.323,14.464Z" transform="translate(144.106 -79.216)" fill="#ad6359"/>
      <path id="Path_286" data-name="Path 286" d="M318.94,276.97c7.016-10.84,14.963-21.613,18.7-34.115,2-9.127,2.76-18.471,4.988-27.614,1.43-5.387,2.776-11.338,6.9-15.378a6.218,6.218,0,0,1,5.27-1.663,6.168,6.168,0,0,0-4.988,1.945c-3.674,4.223-4.771,9.975-5.968,15.328-1.463,7.315-2.344,14.73-3.508,22.161-2.328,15.046-12.369,27.581-21.4,39.3Z" transform="translate(142.324 -79.221)" fill="#263238"/>
      <path id="Path_287" data-name="Path 287" d="M348.847,257.007c-9.709,8.047-23.275,11.039-35.578,11.854a65.138,65.138,0,0,0-27.016,6.949,83.022,83.022,0,0,0-8.163,4.7,59.386,59.386,0,0,1,35.046-13.3c12.352-.864,25.187-3.325,35.694-10.224Z" transform="translate(115.26 -40.222)" fill="#263238"/>
      <path id="Path_288" data-name="Path 288" d="M385.481,208.86,341.491,328.03a7.614,7.614,0,0,1-8.313,4.755l-59.768-11.9a5.187,5.187,0,0,1-3.84-7.165l43.99-119.153a7.565,7.565,0,0,1,8.313-4.771l59.768,11.9a5.187,5.187,0,0,1,3.84,7.165Z" transform="translate(109.333 -84.811)" fill="#37474f"/>
      <path id="Path_289" data-name="Path 289" d="M379.464,201.249l-59.851-11.887a7.564,7.564,0,0,0-8.313,4.755L267.31,313.269a5.187,5.187,0,0,0,3.84,7.165L331,332.338a7.581,7.581,0,0,0,8.313-4.755L383.3,208.431a5.187,5.187,0,0,0-3.84-7.182Zm-42.56,121.9a6.983,6.983,0,0,1-7.5,4.589l-53.483-10.64a4.8,4.8,0,0,1-3.325-6.75l41.031-110.957c2.361-6.4,4.988-6.218,7.9-5.619l10.707,2.128c.632.116.881.914.565,1.762l-.133.366c-.732,1.978.382,2.211,1.762,2.494L359.2,205.5c1.4.266,2.51.482,3.325-1.5l.133-.366c.316-.865,1.064-1.446,1.663-1.313l10.707,2.128c2.992.6,5.1,1.929,2.943,7.781Z" transform="translate(107.835 -85.097)" fill="#263238"/>
      <line id="Line_1" data-name="Line 1" x1="0.2" y1="0.05" transform="translate(382.826 218.164)" fill="none"/>
      <path id="Path_290" data-name="Path 290" d="M375.775,210.5,334.81,321.457a6.983,6.983,0,0,1-7.5,4.589l-53.483-10.64a4.8,4.8,0,0,1-3.325-6.75L311.535,197.7c2.361-6.4,4.988-6.218,7.9-5.619l10.707,2.128c.632.116.881.914.565,1.762l-.133.366c-.732,1.978.382,2.211,1.762,2.494l24.772,4.988c1.4.266,2.51.482,3.325-1.5l.133-.366c.316-.865,1.064-1.446,1.663-1.313l10.707,2.128C375.825,203.318,377.936,204.648,375.775,210.5Z" transform="translate(109.929 -83.409)" fill="#fff"/>
      <g id="freepik--u5zjqx--inject-95-2" data-name="freepik--u5zjqx--inject-95" transform="translate(435.096 112.183)">
        <path id="Path_291" data-name="Path 291" d="M305.345,194.826h-.15a1.164,1.164,0,0,0-.848-.6,1.779,1.779,0,0,0-1.147.2h0v-.116h0l.166-.1.382-.116a2.059,2.059,0,0,1,.449,0h.515a1.2,1.2,0,0,1,.333.15l.216.166a1.066,1.066,0,0,1,.166.216l.083.116Z" transform="translate(-303.2 -194.083)" fill="#c7c7c7"/>
        <path id="Path_292" data-name="Path 292" d="M303.32,194.743l-.1-.183a1.347,1.347,0,0,1,.781-.2,1.064,1.064,0,0,1,.881.532l-.216.116a.815.815,0,0,0-.582-.4,1.147,1.147,0,0,0-.765.133Z" transform="translate(-303.187 -193.9)" fill="#c7c7c7"/>
        <path id="Path_293" data-name="Path 293" d="M304.4,194.98l-.216.116a.449.449,0,0,0-.283-.2.565.565,0,0,0-.4,0l-.1-.183a.7.7,0,0,1,1,.266Z" transform="translate(-303.067 -193.738)" fill="#c7c7c7"/>
        <path id="Path_294" data-name="Path 294" d="M303.791,195.073a.183.183,0,0,1-.2.1.133.133,0,0,1-.1-.166.2.2,0,0,1,.2-.116.133.133,0,0,1,.1.183Z" transform="translate(-303.01 -193.548)" fill="#c7c7c7"/>
      </g>
      <path id="Path_295" data-name="Path 295" d="M298.361,193.635a.549.549,0,0,1,.582-.332.366.366,0,0,1,.266.5.515.515,0,0,1-.582.333.366.366,0,0,1-.266-.5Z" transform="translate(128.672 -82.42)" fill="#c7c7c7"/>
      <path id="Path_296" data-name="Path 296" d="M299.171,193.8a.532.532,0,0,1,.582-.333.366.366,0,0,1,.266.5.532.532,0,0,1-.582.332.366.366,0,0,1-.266-.5Z" transform="translate(129.208 -82.315)" fill="#c7c7c7"/>
      <path id="Path_297" data-name="Path 297" d="M300.014,193.954a.549.549,0,0,1,.565-.332.366.366,0,0,1,.283.5.532.532,0,0,1-.582.333.349.349,0,0,1-.266-.5Z" transform="translate(129.762 -82.208)" fill="#c7c7c7"/>
      <path id="Path_298" data-name="Path 298" d="M300.781,194.129a.532.532,0,0,1,.582-.316.366.366,0,0,1,.283.5.549.549,0,0,1-.582.316.366.366,0,0,1-.283-.5Z" transform="translate(130.275 -82.084)" fill="#c7c7c7"/>
      <path id="Path_299" data-name="Path 299" d="M301.591,194.269a.532.532,0,0,1,.582-.316.349.349,0,0,1,.266.5.532.532,0,0,1-.582.316.366.366,0,0,1-.266-.5Z" transform="translate(130.812 -81.991)" fill="#c7c7c7"/>
      <path id="Path_300" data-name="Path 300" d="M332.795,201.571l-3.475-.7.582-1.563,3.458.7Zm-3.225-.831,3.109.615.449-1.214L330,199.526Z" transform="translate(149.201 -78.436)" fill="#c7c7c7"/>
      <path id="Path_301" data-name="Path 301" d="M332.177,199.959l-2.244-.449-.382,1.031,2.244.432Z" transform="translate(149.353 -78.304)" fill="#c7c7c7"/>
      <path id="Path_302" data-name="Path 302" d="M331.806,200.848l-.316-.067.3-.831.316.05Z" transform="translate(150.639 -78.012)" fill="#c7c7c7"/>
      <path id="Path_303" data-name="Path 303" d="M320.324,197.277l-6.766-1.347a.349.349,0,0,1-.266-.482h0a.532.532,0,0,1,.565-.316l6.766,1.347a.349.349,0,0,1,.266.482h0a.515.515,0,0,1-.565.316Z" transform="translate(138.563 -81.208)" fill="#fff"/>
      <path id="Path_304" data-name="Path 304" d="M276.752,263.246l-.316-.05-.515,1.4-.582-.116.266-.715-1.047-.216-.266.715-.582-.116.515-1.4-.316-.066,1.945-1.131Z" transform="translate(112.358 -37.201)" fill="#ebebeb"/>
      <path id="Path_305" data-name="Path 305" d="M307.755,268.574l-3.425-.7.183-.466,3.425.682Z" transform="translate(132.645 -33.319)" fill="#ebebeb"/>
      <path id="Path_306" data-name="Path 306" d="M307.495,269.267l-3.425-.682.183-.465,3.425.665Z" transform="translate(132.472 -32.848)" fill="#ebebeb"/>
      <path id="Path_307" data-name="Path 307" d="M307.235,269.984l-3.425-.682.183-.482,3.425.682Z" transform="translate(132.3 -32.385)" fill="#ebebeb"/>
      <path id="Path_308" data-name="Path 308" d="M291.392,265.805l-1.347.815-.615-1.214.233-.116.5.981,1.114-.665Z" transform="translate(122.773 -34.723)" fill="#ebebeb"/>
      <path id="Path_309" data-name="Path 309" d="M290.058,268.087a1.5,1.5,0,0,1-1.13-2.061,2.195,2.195,0,0,1,2.411-1.363,1.5,1.5,0,0,1,1.131,2.061A2.195,2.195,0,0,1,290.058,268.087Zm1.18-3.192a1.879,1.879,0,0,0-2.078,1.18,1.313,1.313,0,0,0,.981,1.8,1.912,1.912,0,0,0,2.095-1.2,1.3,1.3,0,0,0-1-1.779Z" transform="translate(122.361 -35.16)" fill="#ebebeb"/>
      <path id="Path_310" data-name="Path 310" d="M297.974,201.6l-1.264-2.095,2.544-1.347.183.349-2.095,1.114,1.031,1.729Z" transform="translate(127.596 -79.198)" fill="#dbdbdb"/>
      <path id="Path_311" data-name="Path 311" d="M330.2,205.055a.466.466,0,0,1-.515.283.3.3,0,0,1-.233-.432.449.449,0,0,1,.5-.283.316.316,0,0,1,.249.432Z" transform="translate(149.268 -74.921)" fill="#dbdbdb"/>
      <path id="Path_312" data-name="Path 312" d="M329.907,205.825a.466.466,0,0,1-.5.3.332.332,0,0,1-.249-.449.482.482,0,0,1,.515-.283.316.316,0,0,1,.233.432Z" transform="translate(149.079 -74.411)" fill="#dbdbdb"/>
      <path id="Path_313" data-name="Path 313" d="M329.617,206.605a.449.449,0,0,1-.5.283.316.316,0,0,1-.249-.432.465.465,0,0,1,.515-.283.3.3,0,0,1,.233.432Z" transform="translate(148.887 -73.895)" fill="#dbdbdb"/>
      <path id="Path_314" data-name="Path 314" d="M306.45,201c7.481,1.214,14.963,2.693,22.211,4.422C321.18,204.225,313.7,202.746,306.45,201Z" transform="translate(134.049 -77.317)" fill="#dbdbdb"/>
      <path id="Path_315" data-name="Path 315" d="M293.86,204.37a159.5,159.5,0,0,1,16.06,3.192,159.509,159.509,0,0,1-16.06-3.192Z" transform="translate(125.708 -75.084)" fill="#dbdbdb"/>
      <path id="Path_316" data-name="Path 316" d="M319.27,213.22a73.4,73.4,0,0,1,10.889,2.178,71.739,71.739,0,0,1-10.889-2.178Z" transform="translate(142.543 -69.221)" fill="#dbdbdb"/>
      <path id="Path_317" data-name="Path 317" d="M319,213.93a71.731,71.731,0,0,1,10.889,2.178A72.98,72.98,0,0,1,319,213.93Z" transform="translate(142.364 -68.75)" fill="#dbdbdb"/>
      <path id="Path_318" data-name="Path 318" d="M293.5,205.35a65.567,65.567,0,0,1,10.291,2.062A65.568,65.568,0,0,1,293.5,205.35Z" transform="translate(125.47 -74.435)" fill="#dbdbdb"/>
      <path id="Path_319" data-name="Path 319" d="M318.058,211.7,307.95,226.08,302.1,241.923a13.882,13.882,0,0,1-10.49-19.1,20.283,20.283,0,0,1,22.195-12.6A15.662,15.662,0,0,1,318.058,211.7Z" transform="translate(123.488 -71.39)" fill="#ff725e"/>
      <path id="Path_320" data-name="Path 320" d="M308.32,234.33a19.069,19.069,0,0,1-10.84,1.164l5.852-15.844Z" transform="translate(128.106 -64.961)" fill="#263238"/>
      <path id="Path_321" data-name="Path 321" d="M317.349,225.853a20.15,20.15,0,0,1-11.372,11.438l-4.988-14.68L317.4,215.18a14.763,14.763,0,0,1-.05,10.673Z" transform="translate(130.432 -67.922)" fill="#37474f"/>
      <path id="Path_322" data-name="Path 322" d="M319.7,217.867,300.86,226.4,312.5,209.92a15.528,15.528,0,0,1,7.2,7.947Z" transform="translate(130.346 -71.407)" fill="#c7c7c7"/>
      <path id="Path_323" data-name="Path 323" d="M312.645,224.478a10.141,10.141,0,0,1-11.106,6.3,6.949,6.949,0,0,1-5.254-9.543,10.141,10.141,0,0,1,11.106-6.3,6.916,6.916,0,0,1,5.254,9.543Z" transform="translate(126.956 -68.176)" fill="#fff"/>
      <path id="Path_324" data-name="Path 324" d="M318.646,214.7l-1.746-.349.615-1.7,1.762.349Z" transform="translate(140.973 -69.592)" fill="#ff725e"/>
      <path id="Path_325" data-name="Path 325" d="M318.28,215.91a71.738,71.738,0,0,1,10.889,2.178A72.988,72.988,0,0,1,318.28,215.91Z" transform="translate(141.887 -67.439)" fill="#dbdbdb"/>
      <path id="Path_326" data-name="Path 326" d="M318,216.62a73.8,73.8,0,0,1,10.89,2.161A72.953,72.953,0,0,1,318,216.62Z" transform="translate(141.701 -66.968)" fill="#dbdbdb"/>
      <path id="Path_327" data-name="Path 327" d="M317.662,217.4l-1.762-.349.632-1.712,1.762.366Z" transform="translate(140.31 -67.816)" fill="#263238"/>
      <path id="Path_328" data-name="Path 328" d="M317.28,218.6a71.49,71.49,0,0,1,10.906,2.178A73.617,73.617,0,0,1,317.28,218.6Z" transform="translate(141.224 -65.656)" fill="#dbdbdb"/>
      <path id="Path_329" data-name="Path 329" d="M317,219.31a72.95,72.95,0,0,1,10.89,2.161A73.8,73.8,0,0,1,317,219.31Z" transform="translate(141.039 -65.186)" fill="#dbdbdb"/>
      <path id="Path_330" data-name="Path 330" d="M316.672,220.092l-1.762-.349.632-1.712,1.762.349Z" transform="translate(139.654 -66.034)" fill="#37474f"/>
      <path id="Path_331" data-name="Path 331" d="M316.29,221.29a72.95,72.95,0,0,1,10.89,2.161,73.805,73.805,0,0,1-10.89-2.161Z" transform="translate(140.568 -63.874)" fill="#dbdbdb"/>
      <path id="Path_332" data-name="Path 332" d="M316,222a72.951,72.951,0,0,1,10.889,2.161A73.8,73.8,0,0,1,316,222Z" transform="translate(140.376 -63.404)" fill="#dbdbdb"/>
      <path id="Path_333" data-name="Path 333" d="M315.682,222.782l-1.762-.349.632-1.712,1.762.349Z" transform="translate(138.998 -64.252)" fill="#c7c7c7"/>
      <path id="Path_334" data-name="Path 334" d="M297.127,278.727l-3.857-.765,13.5-36.542,3.84.765Z" transform="translate(125.317 -50.538)" fill="#ebebeb"/>
      <path id="Path_335" data-name="Path 335" d="M284.5,230.33c10.374,1.779,21.214,3.94,31.405,6.251C305.531,234.786,294.675,232.641,284.5,230.33Z" transform="translate(119.507 -57.885)" fill="#263238"/>
      <path id="Path_336" data-name="Path 336" d="M284.05,231.55c5.9.9,11.754,2.062,17.456,3.475C295.6,234.144,289.752,232.98,284.05,231.55Z" transform="translate(119.209 -57.077)" fill="#263238"/>
      <path id="Path_337" data-name="Path 337" d="M311.21,235.65a123.174,123.174,0,0,1,12.269,2.444,125.088,125.088,0,0,1-12.269-2.444Z" transform="translate(137.203 -54.36)" fill="#ff725e"/>
      <path id="Path_338" data-name="Path 338" d="M280.537,258.7l-1.247-.249,7.332-19.884,1.263.249Z" transform="translate(116.055 -52.426)" fill="#ff725e"/>
      <path id="Path_339" data-name="Path 339" d="M277.324,264.611l-1.264-.266,4.722-12.785,1.264.266Z" transform="translate(113.915 -43.82)" fill="#455a64"/>
      <path id="Path_340" data-name="Path 340" d="M286.007,251.22l-1.247-.266,4.306-11.654,1.263.249Z" transform="translate(119.679 -51.942)" fill="#ff725e"/>
      <path id="Path_341" data-name="Path 341" d="M280.974,268.6l-1.264-.249,7.764-21,1.247.249Z" transform="translate(116.333 -46.609)" fill="#455a64"/>
      <path id="Path_342" data-name="Path 342" d="M291.064,245.639l-1.264-.249,2-5.37,1.247.249Z" transform="translate(123.018 -51.465)" fill="#ff725e"/>
      <path id="Path_343" data-name="Path 343" d="M284.624,271.845l-1.264-.249,10.075-27.315,1.263.266Z" transform="translate(118.752 -48.643)" fill="#455a64"/>
      <path id="Path_344" data-name="Path 344" d="M292.624,255.779l-1.264-.249,5.453-14.78,1.263.249Z" transform="translate(124.052 -50.982)" fill="#ff725e"/>
      <path id="Path_345" data-name="Path 345" d="M288.257,268.8l-1.247-.249,6.6-17.872,1.263.249Z" transform="translate(121.17 -44.403)" fill="#455a64"/>
      <path id="Path_346" data-name="Path 346" d="M296.964,253.39l-1.263-.249,4.306-11.671,1.263.266Z" transform="translate(126.927 -50.505)" fill="#ff725e"/>
      <path id="Path_347" data-name="Path 347" d="M291.914,270.777l-1.264-.249,7.764-21,1.247.249Z" transform="translate(123.581 -45.165)" fill="#455a64"/>
      <path id="Path_348" data-name="Path 348" d="M297.537,267.9l-1.247-.249,9.393-25.453,1.247.249Z" transform="translate(127.318 -50.021)" fill="#ff725e"/>
      <path id="Path_349" data-name="Path 349" d="M295.564,266.021l-1.264-.249,2.66-7.232,1.264.249Z" transform="translate(126 -39.195)" fill="#455a64"/>
      <path id="Path_350" data-name="Path 350" d="M304.444,253.986l-1.264-.249,3.99-10.806,1.264.249Z" transform="translate(131.883 -49.537)" fill="#ff725e"/>
      <path id="Path_351" data-name="Path 351" d="M299.2,272.572l-1.247-.249,8.063-21.862,1.264.249Z" transform="translate(128.418 -44.549)" fill="#455a64"/>
      <path id="Path_352" data-name="Path 352" d="M303.714,274.407l-1.263-.249,11.272-30.507,1.263.266Z" transform="translate(131.399 -49.06)" fill="#ff725e"/>
      <path id="Path_353" data-name="Path 353" d="M302.854,265.451l-1.264-.249.8-2.161,1.263.249Z" transform="translate(130.829 -36.214)" fill="#455a64"/>
      <path id="Path_354" data-name="Path 354" d="M312.677,251.163l-1.247-.249,2.411-6.534,1.247.249Z" transform="translate(137.349 -48.577)" fill="#ff725e"/>
      <path id="Path_355" data-name="Path 355" d="M306.5,275.741l-1.264-.266,9.643-26.135,1.263.266Z" transform="translate(133.248 -45.291)" fill="#455a64"/>
      <path id="Path_356" data-name="Path 356" d="M287.16,235.16a73.616,73.616,0,0,1,10.906,2.178,71.493,71.493,0,0,1-10.906-2.178Z" transform="translate(121.269 -54.685)" fill="#dbdbdb"/>
      <path id="Path_357" data-name="Path 357" d="M286.9,235.87a70.941,70.941,0,0,1,10.89,2.178A73.827,73.827,0,0,1,286.9,235.87Z" transform="translate(121.097 -54.215)" fill="#dbdbdb"/>
      <path id="Path_358" data-name="Path 358" d="M286.552,236.645l-1.762-.349.632-1.7,1.762.349Z" transform="translate(119.699 -55.056)" fill="#ff725e"/>
      <path id="Path_359" data-name="Path 359" d="M298.1,237.34a71.488,71.488,0,0,1,10.906,2.178A71.485,71.485,0,0,1,298.1,237.34Z" transform="translate(128.517 -53.241)" fill="#dbdbdb"/>
      <path id="Path_360" data-name="Path 360" d="M297.84,238.05a72.946,72.946,0,0,1,10.889,2.161,73.807,73.807,0,0,1-10.89-2.161Z" transform="translate(128.345 -52.77)" fill="#dbdbdb"/>
      <path id="Path_361" data-name="Path 361" d="M297.492,238.825l-1.762-.349.632-1.7,1.762.349Z" transform="translate(126.947 -53.612)" fill="#455a64"/>
      <path id="Path_362" data-name="Path 362" d="M350.39,325.342c3.325-7.165,14.83-35.362,15.478-47.3s-2.909-57.473-14.963-64.323c-15.245-8.612-18.537,26.767-18.554,42.295s-13.882,32-13.882,32l22.245,19.668Z" transform="translate(142.013 -69.771)" fill="#ad6359"/>
      <path id="Path_363" data-name="Path 363" d="M334.288,224.14a150.568,150.568,0,0,1-.233,15.495,98.089,98.089,0,0,1-1.031,14.663,43.59,43.59,0,0,1-5.47,13.3c-1.214,2.045-2.527,4.007-3.924,5.935s-3.242,4.09-4.7,6.218c-.15.216-.532,0-.382-.233a107.909,107.909,0,0,0,6.766-12.5,59.453,59.453,0,0,0,4.7-13.915c1.929-9.576,1.762-19.485,3.608-29.077C333.656,223.641,334.288,223.758,334.288,224.14Z" transform="translate(142.039 -62.219)" fill="#263238"/>
      <path id="Path_364" data-name="Path 364" d="M327.3,262.068c-.166-10.873-3.009-56.044,16.492-49.36,10.873,6.318,13.832,29.925,15.1,41.563-2.095-10.873-5.852-34.447-15.777-40.2-16.808-5.47-14.8,38.038-15.811,47.93Z" transform="translate(147.709 -70.005)" fill="#263238"/>
      <path id="Path_365" data-name="Path 365" d="M320.9,297.594l96.426,79.5s-51.322,78.388-86.119,100.516c-16.426,10.424-49.743,10.474-60.848,6.318-10.374-3.857-68.6-61.946-112.154-166.518-33.766-81.33,20.15-61.38,40.349-40.316,21.779,22.693,79.236,80.9,82.395,79.951S320.9,297.594,320.9,297.594Z" transform="translate(28.64 -39.247)" fill="#ff725e"/>
      <path id="Path_366" data-name="Path 366" d="M244.365,299.3c14.547,11.338,28.728,23.109,42.827,34.913,6.916,5.8,33.483,29.925,41.147,36.725.3.283-.416,1.064-.748.815-7.531-5.8-35.628-29.443-42.444-35.362-13.882-12.07-27.681-24.223-41.114-36.792C243.8,299.438,244.116,299.105,244.365,299.3Z" transform="translate(92.642 -12.229)" fill="#263238"/>
      <path id="Path_367" data-name="Path 367" d="M321.329,482.089c-17.407,5.8-41.746,5.237-50.906,1.8-10.374-3.874-68.6-61.962-112.17-166.5-18.554-44.539-10.723-58.687,3.491-58.853C182.276,287.059,267.68,406.411,321.329,482.089Z" transform="translate(28.646 -39.202)" opacity="0.1"/>
      <path id="Path_368" data-name="Path 368" d="M315.3,580.22H60.59c12.469-60.333,66.8-277.641,111.106-309.777,27.249-19.784,63.176-6.068,69.36,2.377C266.177,307.5,308.006,524.725,315.3,580.22Z" transform="translate(-28.838 -38.047)" fill="#ebebeb"/>
      <path id="Path_369" data-name="Path 369" d="M199.976,273.112c0-.116-.2-.083-.2,0,1.247,10.607,3.325,35.229-16.06,34.913-7.8-.116-15.079-3.857-21.181-7.6a99.484,99.484,0,0,1-17.024-13.3,137.093,137.093,0,0,1-16.077-17.473c-.2-.266-.665,0-.466.316,4.871,6.218,8.994,12.735,14.58,18.521a86.115,86.115,0,0,0,18.387,14.8c6.517,3.824,14.248,7.531,22.494,7.3a15.811,15.811,0,0,0,15.378-11.156C202.453,291.05,201.871,281.441,199.976,273.112Z" transform="translate(16.432 -31.905)" fill="#263238"/>
      <path id="Path_370" data-name="Path 370" d="M181.542,261.29s16.891,90.142,20.083,123.608-6.966,194.648-6.966,194.648H58s41.4-198.206,82.012-274.981C162.739,261.722,181.542,261.29,181.542,261.29Z" transform="translate(-30.554 -37.373)" fill="#ff725e"/>
      <path id="Path_371" data-name="Path 371" d="M167.35,265s27.282,101.962,29.078,112.8,10.856,200.167,10.856,200.167l44.639-.316S205.006,292.265,167.35,265Z" transform="translate(41.893 -34.915)" fill="#ff725e"/>
      <path id="Path_372" data-name="Path 372" d="M148.7,293.747C91.175,371.188,26.919,526.134,46.72,552.884,68.8,582.81,148.8,474.247,147.651,468.744c-.865-4.173,19.767-95.678,35.811-162.4S162.913,274.6,148.7,293.747Z" transform="translate(-40.454 -33.372)" fill="#ad6359"/>
      <path id="Path_373" data-name="Path 373" d="M149.337,469.1c1.546-9.692,30.141-130.558,37.822-168.6s-5.736-47.565-37.59-9.244S53.326,451.66,43.351,513.173c-9.626,59.152,19.551,55.046,54.381,23.491C126.244,510.779,149.337,469.1,149.337,469.1Z" transform="translate(-41.491 -33.711)" fill="#ff725e"/>
      <path id="Path_374" data-name="Path 374" d="M106.36,444.009q12.419-70.374,31.588-139.319Q125.562,375.048,106.36,444.009Z" transform="translate(1.486 -8.62)" fill="#263238"/>
      <path id="Path_375" data-name="Path 375" d="M129.059,308.82a29.443,29.443,0,0,1-6.949,17.207C124.072,320.192,126.566,314.473,129.059,308.82Z" transform="translate(11.92 -5.884)" fill="#263238"/>
      <path id="Path_376" data-name="Path 376" d="M45.9,472.646c18.138,19.485,59.851,17.806,165.171,23.475,14.58.781,47.781-100.616,32.253-102.245-19.551-2.062-95.878-5.819-101.414-5.4C94.463,392.1,33.6,459.446,45.9,472.646Z" transform="translate(-39.635 46.867)" fill="#ad6359"/>
      <path id="Path_377" data-name="Path 377" d="M163.259,398.995s38.77-12.519,61.181-12.8c30.008-.366,56.06,11.638,66.667,17.373,22.161,11.9,67.5,56.01,57.074,71.289-9.427,13.816-53.5-33.6-53.5-33.6s52.918,40.931,38.487,55.495-62.444-43.392-62.444-43.392S324.141,496.585,306.9,509.3c-13.034,9.559-59.5-40.482-59.5-40.482s45.653,37.523,32.685,47.93c-14.348,11.521-60.117-31.987-60.117-31.987-37.457,20.931-63.857,15.561-82.178,9.526C133.35,492.827,163.259,398.995,163.259,398.995Z" transform="translate(22.01 45.372)" fill="#ad6359"/>
      <path id="Path_378" data-name="Path 378" d="M221.621,410.109c6.384,4.589,12.885,9.177,18.853,14.314s11.737,10.491,17.19,16.16c13.383,13.9,19.585,24.688,19.136,24.073-10.79-14.8-31.837-33.516-37.806-38.654s-11.638-10.54-17.573-15.678A.147.147,0,1,1,221.621,410.109Z" transform="translate(77.681 61.19)" fill="#263238"/>
      <path id="Path_379" data-name="Path 379" d="M210.2,422.842c7.9,6.2,15.977,12.07,23.608,18.637s14.231,13.3,21.363,20.416c.549.532,0,.648-.5.133-7.4-6.75-14.763-12.4-22.245-19.052s-14.7-13.6-22.394-19.95C209.985,422.925,210.085,422.742,210.2,422.842Z" transform="translate(70.164 69.639)" fill="#263238"/>
      <path id="Path_380" data-name="Path 380" d="M198.547,432.015c12.569,8.861,23.475,20.033,33.915,31.255.532.549-.1.632-.665.1-11.072-10.607-19.7-19-33.566-30.923C198.015,432.281,198.281,431.849,198.547,432.015Z" transform="translate(62.3 75.711)" fill="#263238"/>
      <path id="Path_381" data-name="Path 381" d="M231.444,390.92,155.7,503.589s-93.766-8.063-110.425-29.477c-10.973-14.1,48.679-85.836,101.314-85.853Z" transform="translate(-39.857 46.747)" fill="#ff725e"/>
      <path id="Path_382" data-name="Path 382" d="M70.019,413.238c7.465-7.215,28.928-24.572,59.352-25.038a.233.233,0,0,1,0,.466C106.745,391.193,77.983,407.252,70.2,413.6,70.1,413.736,69.87,413.42,70.019,413.238Z" transform="translate(-22.623 46.707)" fill="#263238"/>
      <path id="Path_383" data-name="Path 383" d="M95.025,487.593c7.664-12.835,16.01-25.254,24.389-37.64s16.742-24.821,25.437-37.008c4.988-6.883,9.776-13.8,14.963-20.516.133-.183.465,0,.349.2-7.648,12.818-15.96,25.287-24.24,37.706s-16.742,24.821-25.287,37.124c-4.821,6.933-9.792,13.8-14.963,20.516C95.391,488.308,94.759,487.958,95.025,487.593Z" transform="translate(-6.066 49.46)" fill="#263238"/>
      <path id="Path_384" data-name="Path 384" d="M193.328,390.163a129.133,129.133,0,0,0-17.373-1.463c-5.819-.266-11.638-.432-17.456-.549-11.638-.216-36.093-2.012-57.008.981-.233,0,1.114,1,1.347.948,9.875-1.945,83.226,2.211,89.144,1.812a8.3,8.3,0,0,0-.466,1.28c0,.3.266.632.549.382a20.006,20.006,0,0,0,1.663-1.929.848.848,0,0,0-.4-1.463Z" transform="translate(-1.758 46.191)" fill="#263238"/>
      <path id="Path_385" data-name="Path 385" d="M59,448c9.277,1.929,22.278,5.7,31.588,8.13A87.168,87.168,0,0,1,59,448Z" transform="translate(-29.891 86.326)" fill="#263238"/>
      <path id="Path_386" data-name="Path 386" d="M179.743,327.26c-13.8,1.663-40.067-17.29-47.515-37.573-.515-1.4,3.491-14.647,7.6-30.989,2.444-9.975,4.988-21.031,6.484-31.322.316-2.111,62.245,25.37,62.245,25.37s-9.593,20.648-12.17,38.62a23.642,23.642,0,0,0-.2,4.289v.715C196.285,304.584,194.506,325.448,179.743,327.26Z" transform="translate(18.594 -59.919)" fill="#ad6359"/>
      <path id="Path_387" data-name="Path 387" d="M189.645,295.464v.715a45.05,45.05,0,0,1-6.65-.648c-37.889-6.55-40.782-55.628-40.915-67.98,11.239,3.325,59.967,24.938,59.967,24.938s-9.593,20.665-12.186,38.637A24.941,24.941,0,0,0,189.645,295.464Z" transform="translate(25.151 -59.727)" fill="#263238"/>
      <path id="Path_388" data-name="Path 388" d="M142.777,190.42C133.052,212.6,137.391,280.478,152,297.2c21.181,24.273,59.768,30.89,81.364,4.539,20.948-25.553,13.732-113.916-2.943-129.527C205.837,149.256,157.141,157.7,142.777,190.42Z" transform="translate(22.159 -104.974)" fill="#ad6359"/>
      <path id="Path_389" data-name="Path 389" d="M178.464,208.476c0-.166-.349.233-.332.432.3,4.572-.116,9.859-4.206,11.521-.133,0-.1.283,0,.249C179,219.8,179.494,212.7,178.464,208.476Z" transform="translate(46.191 -72.39)" fill="#263238"/>
      <path id="Path_390" data-name="Path 390" d="M176.3,205.682c-7.382-.3-7.431,14.481-.6,14.763S182.489,205.931,176.3,205.682Z" transform="translate(44.094 -74.218)" fill="#263238"/>
      <path id="Path_391" data-name="Path 391" d="M192.71,209.019c0-.183.349.216.349.4-.166,4.572.416,9.859,4.555,11.388.133,0,.116.283,0,.249C192.527,220.291,191.762,213.291,192.71,209.019Z" transform="translate(58.462 -72.035)" fill="#263238"/>
      <path id="Path_392" data-name="Path 392" d="M196.729,206.116c7.365-.532,7.9,14.248,1.064,14.73S190.611,206.548,196.729,206.116Z" transform="translate(58.482 -73.937)" fill="#263238"/>
      <path id="Path_393" data-name="Path 393" d="M172.257,205.735a54.338,54.338,0,0,0,5.7-1.978c2.178-.8,4.007-1.2,5.453-3.159a3.142,3.142,0,0,0-.482-3.791c-2.211-1.962-5.137-1.663-7.814-.831a11.338,11.338,0,0,0-6.65,4.9,3.325,3.325,0,0,0,3.791,4.855Z" transform="translate(42.339 -81.071)" fill="#263238"/>
      <path id="Path_394" data-name="Path 394" d="M203.332,205.584a53.387,53.387,0,0,1-5.869-1.546c-2.261-.615-4.106-.881-5.7-2.71a3.142,3.142,0,0,1,.2-3.824c2.062-2.128,4.988-2.062,7.731-1.43a11.421,11.421,0,0,1,6.933,4.389,3.325,3.325,0,0,1-3.292,5.121Z" transform="translate(57.698 -80.836)" fill="#263238"/>
      <path id="Path_395" data-name="Path 395" d="M174.166,234.018c1.1,1.081,2.195,2.56,3.857,2.693a11.838,11.838,0,0,0,4.988-1.13c.15,0,.3.1.2.233a6.185,6.185,0,0,1-5.819,2.477,4.988,4.988,0,0,1-3.591-4.073C173.618,234.018,173.967,233.9,174.166,234.018Z" transform="translate(46.132 -55.472)" fill="#263238"/>
      <path id="Path_396" data-name="Path 396" d="M176.933,245.571a15.661,15.661,0,0,0,10.391,6.983,19.718,19.718,0,0,0,5.6.266,4.588,4.588,0,0,0,1.081-.116,7.641,7.641,0,0,0,1-.15,1.147,1.147,0,0,0,.931-1.014h0a4.436,4.436,0,0,0,0-.466v-.449c.1-3.525-.216-8.878-.216-8.878,1.28.648,7.847,3.624,7.747,1.779-.848-15.262-1.8-32.22-5.869-47.232a.42.42,0,1,0-.831.116c.233,14.7,3.059,29.26,3.525,44.007a28.012,28.012,0,0,0-7.348-2.261c-.5.15.8,10.358.632,11.937a.581.581,0,0,1,0,.166c-5.935.748-10.391-1.064-16.126-5.071C177.1,244.89,176.667,245.205,176.933,245.571Z" transform="translate(48.187 -80.674)" fill="#263238"/>
      <path id="Path_397" data-name="Path 397" d="M191.608,231.289a18.538,18.538,0,0,1-7.431,5.719,8.313,8.313,0,0,1-5.071.3c-3.658-.981-3.724-4.339-3.042-7.2a19.951,19.951,0,0,1,1.663-4.389A23.974,23.974,0,0,0,191.608,231.289Z" transform="translate(47.444 -60.939)" fill="#263238"/>
      <path id="Path_398" data-name="Path 398" d="M184.177,235.259a8.313,8.313,0,0,1-5.071.3c-3.658-.981-3.724-4.339-3.042-7.2C179.987,228.776,183.844,231.452,184.177,235.259Z" transform="translate(47.444 -59.19)" fill="#ff9bbc"/>
      <path id="Path_399" data-name="Path 399" d="M248.32,199.145c-2-5.736-4.655-6.9-4.655-6.9s0-6.733-6.018-15.362c-6.351-9.027-13.3-10.208-13.3-10.208s-5.752-6.517-18.919-8.994c-3.026-.565-12.186-.715-14.963.432-3.325,1.313-6.65-.416-10.125-.482a22.561,22.561,0,0,0-9.21,1.779,24.373,24.373,0,0,0-6.75,4.206,38.066,38.066,0,0,0-3.325,3.458,10.757,10.757,0,0,1-5.835,3.408,19.385,19.385,0,0,0-11.92,10.54A24.838,24.838,0,0,0,141,191c-.166,4.306-4.672,6.318-6.367,9.975a16.176,16.176,0,0,0,3.026,17.623c-5.619,4.023-7.714,13.018-4.7,20.117,2.328,5.486,7.2,7.93,12.12,9.277a13.416,13.416,0,0,0,2.776.449c10.075,1.663,19.95-9.41,16.376-21.38v-.1a27.382,27.382,0,0,0,13.816-9.809c3.824-4.988,5.071-11.638,5.121-18.288,12.652,7.98,30.191.116,32.436-16.126,3.608,3.957,13.949,10.64,18.72,9.144,2.062,14.6,11.638,19.95,14.165,19.95C248.819,211.93,250.581,205.7,248.32,199.145ZM157.929,244.2c2.926-3.042,5.137-7.348,6.185-16.476a16.326,16.326,0,0,1-6.185,16.476Zm39.9-44.522a25.2,25.2,0,0,0,16.509-16.426c-2.261,9.942-8.712,15.146-16.459,16.426Z" transform="translate(18.197 -106.301)" fill="#263238"/>
      <path id="Path_400" data-name="Path 400" d="M179.492,235.875a18.5,18.5,0,1,1,20.565-20.732h0a18.5,18.5,0,0,1-20.565,20.732Zm4.173-34.265a15.279,15.279,0,0,0-3.99,0,16.01,16.01,0,1,0,3.99,0Z" transform="translate(39.144 -78.642)" fill="#ff725e"/>
      <path id="Path_401" data-name="Path 401" d="M203.476,235.89c-7.032-.865-12.519-8.828-12.486-18.487a22.128,22.128,0,0,1,3.957-12.918,11.538,11.538,0,0,1,19.734,0,22,22,0,0,1,3.84,12.951c0,10.191-6.251,18.471-13.832,18.437A4.234,4.234,0,0,1,203.476,235.89Zm2.294-34.4a9.039,9.039,0,0,0-.948,0,9.859,9.859,0,0,0-7.88,4.505,19.618,19.618,0,0,0-3.475,11.471c0,8.828,4.988,16.043,11.222,16.06s11.322-7.132,11.372-15.96a19.6,19.6,0,0,0-3.325-11.5,10.191,10.191,0,0,0-6.966-4.572Z" transform="translate(57.554 -78.69)" fill="#ff725e"/>
      <path id="Path_402" data-name="Path 402" d="M185.663,212.024l-1.663-1.9c2.826-2.344,9.327-5.486,13.816-.632L196,211.16C192,206.821,185.862,211.808,185.663,212.024Z" transform="translate(52.924 -73.379)" fill="#ff725e"/>
      <path id="Path_403" data-name="Path 403" d="M136.248,217.49l-2.178-1.147c.532-1.014,5.37-9.975,10.89-10.873,5.17-.8,38.238,2.444,39.718,2.577l-.249,2.461c-9.493-.931-35.079-3.225-39.069-2.594C141.7,208.479,137.545,215.03,136.248,217.49Z" transform="translate(19.844 -74.439)" fill="#ff725e"/>
      <path id="Path_404" data-name="Path 404" d="M158.078,219.872S145.11,196.863,134.8,201.285s-2.012,36.725,9.044,42.112a11.721,11.721,0,0,0,16.243-4.738Z" transform="translate(17.216 -77.502)" fill="#ad6359"/>
      <path id="Path_405" data-name="Path 405" d="M134.576,206.6a.166.166,0,0,0-.1.3c7.731,4.04,11.239,11.9,13.45,19.95-2.095-3.209-5.2-5.17-9.46-2.71-.233.133,0,.482.166.449a7.249,7.249,0,0,1,7.664,3.325,34.379,34.379,0,0,1,3.159,6.766c.3.748,1.663.5,1.446-.366v-.183C152.016,223.89,145.482,208.695,134.576,206.6Z" transform="translate(20.069 -73.607)" fill="#263238"/>
    </g>
  </g>
</svg>
